<svg xmlns="http://www.w3.org/2000/svg" xmlns:xlink="http://www.w3.org/1999/xlink" width="500" zoomAndPan="magnify" viewBox="0 0 375 374.999991" height="500" preserveAspectRatio="xMidYMid meet" version="1.0"><defs><g/><clipPath id="d6efec663f"><path d="M 182 90.898438 L 224.445312 90.898438 L 224.445312 201 L 182 201 Z M 182 90.898438 " clip-rule="nonzero"/></clipPath><clipPath id="24634d1cf8"><path d="M 150.195312 104 L 193 104 L 193 217.648438 L 150.195312 217.648438 Z M 150.195312 104 " clip-rule="nonzero"/></clipPath></defs><rect x="-37.5" width="450" fill="#ffffff" y="-37.499999" height="449.999989" fill-opacity="1"/><rect x="-37.5" width="450" fill="#ffffff" y="-37.499999" height="449.999989" fill-opacity="1"/><g clip-path="url(#d6efec663f)"><path fill="#8cc546" d="M 224.433594 200.8125 L 192.445312 197.144531 L 192.445312 112.578125 L 182.195312 110.621094 L 182.195312 95.742188 L 224.433594 90.902344 L 224.433594 200.8125 " fill-opacity="1" fill-rule="nonzero"/></g><g clip-path="url(#24634d1cf8)"><path fill="#1875c1" d="M 150.203125 217.648438 L 150.203125 104.507812 L 182.195312 110.621094 L 182.195312 195.972656 L 192.445312 197.144531 L 192.445312 209.578125 L 150.203125 217.648438 " fill-opacity="1" fill-rule="nonzero"/></g><path fill="#0d5a35" d="M 192.445312 197.144531 L 182.195312 195.972656 L 182.195312 110.621094 L 192.445312 112.578125 L 192.445312 197.144531 " fill-opacity="1" fill-rule="nonzero"/><path fill="#ffffff" d="M 178.257812 178.175781 L 178.257812 164.957031 L 165.105469 164.957031 C 164.496094 164.957031 164 164.460938 164 163.847656 L 164 147.859375 C 164 147.246094 164.496094 146.746094 165.105469 146.746094 L 178.257812 146.746094 L 178.257812 133.527344 C 178.257812 132.914062 178.753906 132.414062 179.367188 132.414062 L 195.273438 132.414062 C 195.882812 132.414062 196.378906 132.914062 196.378906 133.527344 L 196.378906 146.746094 L 209.53125 146.746094 C 210.144531 146.746094 210.636719 147.246094 210.636719 147.859375 L 210.636719 163.847656 C 210.636719 164.460938 210.144531 164.957031 209.53125 164.957031 L 196.378906 164.957031 L 196.378906 178.175781 C 196.378906 178.792969 195.882812 179.289062 195.273438 179.289062 L 179.367188 179.289062 C 178.753906 179.289062 178.257812 178.792969 178.257812 178.175781 " fill-opacity="1" fill-rule="nonzero"/><g fill="#404040" fill-opacity="1"><g transform="translate(143.176826, 258.639475)"><g><path d="M 3.109375 -23.09375 L 7.390625 -23.09375 L 7.390625 0 L 3.109375 0 Z M 3.109375 -23.09375 "/></g></g></g><g fill="#404040" fill-opacity="1"><g transform="translate(154.330903, 258.639475)"><g><path d="M 12.609375 -23.09375 C 14.609375 -23.09375 16.347656 -22.765625 17.828125 -22.109375 C 19.316406 -21.453125 20.457031 -20.503906 21.25 -19.265625 C 22.039062 -18.035156 22.4375 -16.578125 22.4375 -14.890625 C 22.4375 -13.210938 22.039062 -11.75 21.25 -10.5 C 20.457031 -9.257812 19.316406 -8.3125 17.828125 -7.65625 C 16.347656 -7 14.609375 -6.671875 12.609375 -6.671875 L 7.390625 -6.671875 L 7.390625 0 L 3.109375 0 L 3.109375 -23.09375 Z M 12.40625 -10.296875 C 14.28125 -10.296875 15.695312 -10.691406 16.65625 -11.484375 C 17.625 -12.273438 18.109375 -13.410156 18.109375 -14.890625 C 18.109375 -16.359375 17.625 -17.488281 16.65625 -18.28125 C 15.695312 -19.070312 14.28125 -19.46875 12.40625 -19.46875 L 7.390625 -19.46875 L 7.390625 -10.296875 Z M 12.40625 -10.296875 "/></g></g></g><g fill="#404040" fill-opacity="1"><g transform="translate(178.915961, 258.639475)"><g><path d="M 24.328125 0 L 24.28125 -15.3125 L 16.703125 -2.640625 L 14.78125 -2.640625 L 7.1875 -15.109375 L 7.1875 0 L 3.109375 0 L 3.109375 -23.09375 L 6.640625 -23.09375 L 15.8125 -7.78125 L 24.8125 -23.09375 L 28.34375 -23.09375 L 28.375 0 Z M 24.328125 0 "/></g></g></g><g fill="#404040" fill-opacity="1"><g transform="translate(211.058001, 258.639475)"><g><path d="M 10.265625 0.328125 C 8.484375 0.328125 6.757812 0.078125 5.09375 -0.421875 C 3.4375 -0.929688 2.125 -1.601562 1.15625 -2.4375 L 2.640625 -5.78125 C 3.585938 -5.03125 4.75 -4.414062 6.125 -3.9375 C 7.5 -3.46875 8.878906 -3.234375 10.265625 -3.234375 C 11.984375 -3.234375 13.265625 -3.507812 14.109375 -4.0625 C 14.953125 -4.613281 15.375 -5.335938 15.375 -6.234375 C 15.375 -6.898438 15.132812 -7.445312 14.65625 -7.875 C 14.1875 -8.300781 13.585938 -8.632812 12.859375 -8.875 C 12.140625 -9.113281 11.15625 -9.390625 9.90625 -9.703125 C 8.144531 -10.117188 6.71875 -10.535156 5.625 -10.953125 C 4.539062 -11.367188 3.609375 -12.019531 2.828125 -12.90625 C 2.046875 -13.800781 1.65625 -15.007812 1.65625 -16.53125 C 1.65625 -17.8125 2 -18.972656 2.6875 -20.015625 C 3.382812 -21.054688 4.429688 -21.882812 5.828125 -22.5 C 7.222656 -23.125 8.929688 -23.4375 10.953125 -23.4375 C 12.359375 -23.4375 13.742188 -23.257812 15.109375 -22.90625 C 16.472656 -22.550781 17.648438 -22.046875 18.640625 -21.390625 L 17.296875 -18.046875 C 16.285156 -18.640625 15.226562 -19.085938 14.125 -19.390625 C 13.019531 -19.703125 11.953125 -19.859375 10.921875 -19.859375 C 9.222656 -19.859375 7.960938 -19.570312 7.140625 -19 C 6.316406 -18.4375 5.90625 -17.679688 5.90625 -16.734375 C 5.90625 -16.066406 6.140625 -15.523438 6.609375 -15.109375 C 7.085938 -14.691406 7.6875 -14.363281 8.40625 -14.125 C 9.132812 -13.882812 10.128906 -13.609375 11.390625 -13.296875 C 13.097656 -12.898438 14.503906 -12.488281 15.609375 -12.0625 C 16.710938 -11.632812 17.65625 -10.976562 18.4375 -10.09375 C 19.21875 -9.21875 19.609375 -8.03125 19.609375 -6.53125 C 19.609375 -5.257812 19.257812 -4.101562 18.5625 -3.0625 C 17.863281 -2.03125 16.8125 -1.207031 15.40625 -0.59375 C 14 0.0195312 12.285156 0.328125 10.265625 0.328125 Z M 10.265625 0.328125 "/></g></g></g><g fill="#737373" fill-opacity="1"><g transform="translate(46.165486, 271.497637)"><g><path d="M 1.296875 -0.90625 L 2.59375 -0.90625 C 2.59375 -0.664062 2.585938 -0.46875 2.578125 -0.3125 C 2.578125 -0.164062 2.566406 -0.078125 2.546875 -0.046875 C 2.523438 -0.015625 2.484375 0 2.421875 0 L 0.28125 0 L 0.28125 -6.234375 C 0.28125 -6.265625 0.289062 -6.300781 0.3125 -6.34375 C 0.332031 -6.394531 0.378906 -6.421875 0.453125 -6.421875 L 2.65625 -6.421875 C 2.65625 -6.191406 2.648438 -6 2.640625 -5.84375 C 2.640625 -5.695312 2.625 -5.601562 2.59375 -5.5625 C 2.570312 -5.53125 2.53125 -5.515625 2.46875 -5.515625 L 1.296875 -5.515625 L 1.296875 -3.9375 L 2.40625 -3.9375 C 2.40625 -3.71875 2.398438 -3.53125 2.390625 -3.375 C 2.390625 -3.226562 2.378906 -3.128906 2.359375 -3.078125 C 2.335938 -3.035156 2.300781 -3.015625 2.25 -3.015625 L 1.296875 -3.015625 Z M 1.296875 -0.90625 "/></g></g></g><g fill="#737373" fill-opacity="1"><g transform="translate(52.051703, 271.497637)"><g><path d="M 2.65625 -6.421875 C 2.65625 -6.191406 2.648438 -6.003906 2.640625 -5.859375 C 2.640625 -5.722656 2.628906 -5.640625 2.609375 -5.609375 C 2.585938 -5.578125 2.539062 -5.5625 2.46875 -5.5625 L 1.296875 -5.5625 L 1.296875 -3.9375 L 2.40625 -3.9375 C 2.40625 -3.71875 2.398438 -3.53125 2.390625 -3.375 C 2.390625 -3.226562 2.378906 -3.128906 2.359375 -3.078125 C 2.335938 -3.035156 2.300781 -3.015625 2.25 -3.015625 L 1.296875 -3.015625 L 1.296875 -0.171875 C 1.296875 -0.0546875 1.242188 0 1.140625 0 L 0.28125 0 L 0.28125 -6.234375 C 0.28125 -6.265625 0.289062 -6.300781 0.3125 -6.34375 C 0.332031 -6.394531 0.378906 -6.421875 0.453125 -6.421875 Z M 2.65625 -6.421875 "/></g></g></g><g fill="#737373" fill-opacity="1"><g transform="translate(57.89211, 271.497637)"><g><path d="M 2.65625 -6.421875 C 2.65625 -6.191406 2.648438 -6.003906 2.640625 -5.859375 C 2.640625 -5.722656 2.628906 -5.640625 2.609375 -5.609375 C 2.585938 -5.578125 2.539062 -5.5625 2.46875 -5.5625 L 1.296875 -5.5625 L 1.296875 -3.9375 L 2.40625 -3.9375 C 2.40625 -3.71875 2.398438 -3.53125 2.390625 -3.375 C 2.390625 -3.226562 2.378906 -3.128906 2.359375 -3.078125 C 2.335938 -3.035156 2.300781 -3.015625 2.25 -3.015625 L 1.296875 -3.015625 L 1.296875 -0.171875 C 1.296875 -0.0546875 1.242188 0 1.140625 0 L 0.28125 0 L 0.28125 -6.234375 C 0.28125 -6.265625 0.289062 -6.300781 0.3125 -6.34375 C 0.332031 -6.394531 0.378906 -6.421875 0.453125 -6.421875 Z M 2.65625 -6.421875 "/></g></g></g><g fill="#737373" fill-opacity="1"><g transform="translate(63.732516, 271.497637)"><g><path d="M 1.296875 -0.90625 L 2.59375 -0.90625 C 2.59375 -0.664062 2.585938 -0.46875 2.578125 -0.3125 C 2.578125 -0.164062 2.566406 -0.078125 2.546875 -0.046875 C 2.523438 -0.015625 2.484375 0 2.421875 0 L 0.28125 0 L 0.28125 -6.234375 C 0.28125 -6.265625 0.289062 -6.300781 0.3125 -6.34375 C 0.332031 -6.394531 0.378906 -6.421875 0.453125 -6.421875 L 2.65625 -6.421875 C 2.65625 -6.191406 2.648438 -6 2.640625 -5.84375 C 2.640625 -5.695312 2.625 -5.601562 2.59375 -5.5625 C 2.570312 -5.53125 2.53125 -5.515625 2.46875 -5.515625 L 1.296875 -5.515625 L 1.296875 -3.9375 L 2.40625 -3.9375 C 2.40625 -3.71875 2.398438 -3.53125 2.390625 -3.375 C 2.390625 -3.226562 2.378906 -3.128906 2.359375 -3.078125 C 2.335938 -3.035156 2.300781 -3.015625 2.25 -3.015625 L 1.296875 -3.015625 Z M 1.296875 -0.90625 "/></g></g></g><g fill="#737373" fill-opacity="1"><g transform="translate(69.618733, 271.497637)"><g><path d="M 1.71875 0.09375 C 1.351562 0.09375 1.0625 0.0078125 0.84375 -0.15625 C 0.625 -0.320312 0.457031 -0.625 0.34375 -1.0625 C 0.238281 -1.507812 0.1875 -2.15625 0.1875 -3 C 0.1875 -5.34375 0.796875 -6.515625 2.015625 -6.515625 C 2.367188 -6.515625 2.601562 -6.46875 2.71875 -6.375 C 2.832031 -6.28125 2.890625 -6.144531 2.890625 -5.96875 C 2.890625 -5.769531 2.84375 -5.566406 2.75 -5.359375 C 2.601562 -5.460938 2.441406 -5.515625 2.265625 -5.515625 C 1.960938 -5.515625 1.71875 -5.335938 1.53125 -4.984375 C 1.34375 -4.628906 1.25 -3.992188 1.25 -3.078125 C 1.25 -2.546875 1.273438 -2.132812 1.328125 -1.84375 C 1.378906 -1.550781 1.457031 -1.34375 1.5625 -1.21875 C 1.664062 -1.101562 1.804688 -1.046875 1.984375 -1.046875 C 2.285156 -1.046875 2.523438 -1.09375 2.703125 -1.1875 C 2.785156 -1 2.828125 -0.800781 2.828125 -0.59375 C 2.828125 -0.375 2.726562 -0.203125 2.53125 -0.078125 C 2.332031 0.0351562 2.0625 0.09375 1.71875 0.09375 Z M 1.71875 0.09375 "/></g></g></g><g fill="#737373" fill-opacity="1"><g transform="translate(75.724892, 271.497637)"><g><path d="M 0.28125 -5.96875 C 0.28125 -6.132812 0.296875 -6.242188 0.328125 -6.296875 C 0.359375 -6.359375 0.4375 -6.394531 0.5625 -6.40625 C 0.6875 -6.414062 0.9375 -6.421875 1.3125 -6.421875 L 1.3125 -0.1875 C 1.3125 -0.113281 1.296875 -0.0664062 1.265625 -0.046875 C 1.234375 -0.0234375 1.128906 -0.0078125 0.953125 0 C 0.785156 0 0.5625 0 0.28125 0 Z M 0.28125 -5.96875 "/></g></g></g><g fill="#737373" fill-opacity="1"><g transform="translate(80.447279, 271.497637)"><g><path d="M 1.296875 -0.90625 L 2.59375 -0.90625 C 2.59375 -0.664062 2.585938 -0.46875 2.578125 -0.3125 C 2.578125 -0.164062 2.566406 -0.078125 2.546875 -0.046875 C 2.523438 -0.015625 2.484375 0 2.421875 0 L 0.28125 0 L 0.28125 -6.234375 C 0.28125 -6.265625 0.289062 -6.300781 0.3125 -6.34375 C 0.332031 -6.394531 0.378906 -6.421875 0.453125 -6.421875 L 2.65625 -6.421875 C 2.65625 -6.191406 2.648438 -6 2.640625 -5.84375 C 2.640625 -5.695312 2.625 -5.601562 2.59375 -5.5625 C 2.570312 -5.53125 2.53125 -5.515625 2.46875 -5.515625 L 1.296875 -5.515625 L 1.296875 -3.9375 L 2.40625 -3.9375 C 2.40625 -3.71875 2.398438 -3.53125 2.390625 -3.375 C 2.390625 -3.226562 2.378906 -3.128906 2.359375 -3.078125 C 2.335938 -3.035156 2.300781 -3.015625 2.25 -3.015625 L 1.296875 -3.015625 Z M 1.296875 -0.90625 "/></g></g></g><g fill="#737373" fill-opacity="1"><g transform="translate(86.333496, 271.497637)"><g><path d="M 2.65625 -6.234375 C 2.65625 -6.304688 2.671875 -6.351562 2.703125 -6.375 C 2.734375 -6.394531 2.832031 -6.40625 3 -6.40625 C 3.164062 -6.414062 3.390625 -6.421875 3.671875 -6.421875 L 3.671875 -0.1875 C 3.671875 -0.125 3.65625 -0.078125 3.625 -0.046875 C 3.59375 -0.015625 3.546875 0 3.484375 0 L 2.703125 0 L 1.71875 -2.453125 C 1.5625 -2.867188 1.378906 -3.550781 1.171875 -4.5 C 1.253906 -3.707031 1.296875 -3.003906 1.296875 -2.390625 L 1.296875 -0.1875 C 1.296875 -0.113281 1.28125 -0.0664062 1.25 -0.046875 C 1.21875 -0.0234375 1.117188 -0.0078125 0.953125 0 C 0.785156 0 0.5625 0 0.28125 0 L 0.28125 -6.234375 C 0.28125 -6.359375 0.335938 -6.421875 0.453125 -6.421875 L 1.265625 -6.421875 L 2.234375 -4.015625 C 2.378906 -3.628906 2.554688 -2.976562 2.765625 -2.0625 C 2.691406 -2.800781 2.65625 -3.476562 2.65625 -4.09375 Z M 2.65625 -6.234375 "/></g></g></g><g fill="#737373" fill-opacity="1"><g transform="translate(93.401876, 271.497637)"><g><path d="M 3.390625 -6.421875 L 3.390625 -5.65625 C 3.390625 -5.582031 3.375 -5.53125 3.34375 -5.5 C 3.320312 -5.476562 3.273438 -5.46875 3.203125 -5.46875 L 2.234375 -5.46875 L 2.234375 -0.1875 C 2.234375 -0.113281 2.210938 -0.0664062 2.171875 -0.046875 C 2.140625 -0.0234375 2.039062 -0.0078125 1.875 0 C 1.707031 0 1.484375 0 1.203125 0 L 1.203125 -5.46875 L 0.09375 -5.46875 L 0.09375 -6.234375 C 0.09375 -6.359375 0.15625 -6.421875 0.28125 -6.421875 Z M 3.390625 -6.421875 "/></g></g></g><g fill="#737373" fill-opacity="1"><g transform="translate(100.012057, 271.497637)"><g/></g></g><g fill="#737373" fill-opacity="1"><g transform="translate(104.432034, 271.497637)"><g><path d="M 4.09375 -6.421875 L 4.09375 -0.1875 C 4.09375 -0.113281 4.078125 -0.0664062 4.046875 -0.046875 C 4.023438 -0.0234375 3.925781 -0.0078125 3.75 0 C 3.582031 0 3.347656 0 3.046875 0 L 3.09375 -1.765625 C 3.113281 -2.191406 3.140625 -2.609375 3.171875 -3.015625 C 3.210938 -3.421875 3.25 -3.753906 3.28125 -4.015625 C 3.320312 -4.273438 3.347656 -4.4375 3.359375 -4.5 L 3.34375 -4.515625 C 3.113281 -3.617188 2.957031 -3.050781 2.875 -2.8125 L 2.4375 -1.59375 C 2.414062 -1.550781 2.378906 -1.53125 2.328125 -1.53125 L 1.90625 -1.53125 L 1.484375 -2.8125 C 1.390625 -3.070312 1.238281 -3.640625 1.03125 -4.515625 L 1 -4.5 C 1.007812 -4.4375 1.035156 -4.273438 1.078125 -4.015625 C 1.117188 -3.765625 1.15625 -3.4375 1.1875 -3.03125 C 1.226562 -2.632812 1.25 -2.210938 1.25 -1.765625 L 1.28125 -0.1875 C 1.28125 -0.113281 1.257812 -0.0664062 1.21875 -0.046875 C 1.1875 -0.0234375 1.085938 -0.0078125 0.921875 0 C 0.753906 0 0.539062 0 0.28125 0 L 0.28125 -6.234375 C 0.28125 -6.316406 0.289062 -6.367188 0.3125 -6.390625 C 0.34375 -6.410156 0.390625 -6.421875 0.453125 -6.421875 L 1.234375 -6.421875 L 1.96875 -4.140625 C 2.039062 -3.910156 2.097656 -3.707031 2.140625 -3.53125 C 2.179688 -3.363281 2.203125 -3.257812 2.203125 -3.21875 C 2.210938 -3.257812 2.234375 -3.363281 2.265625 -3.53125 C 2.304688 -3.707031 2.363281 -3.90625 2.4375 -4.125 L 3.0625 -6.234375 C 3.082031 -6.304688 3.101562 -6.351562 3.125 -6.375 C 3.15625 -6.40625 3.195312 -6.421875 3.25 -6.421875 Z M 4.09375 -6.421875 "/></g></g></g><g fill="#737373" fill-opacity="1"><g transform="translate(111.931124, 271.497637)"><g><path d="M 3.984375 -0.171875 C 3.992188 -0.109375 3.96875 -0.0625 3.90625 -0.03125 C 3.84375 0 3.710938 0.015625 3.515625 0.015625 C 3.304688 0.015625 3.113281 0.0078125 2.9375 0 L 2.625 -1.46875 L 1.390625 -1.46875 L 1.125 -0.171875 C 1.101562 -0.0976562 1.066406 -0.046875 1.015625 -0.015625 C 0.960938 0.00390625 0.84375 0.015625 0.65625 0.015625 C 0.445312 0.015625 0.234375 0.00390625 0.015625 -0.015625 L 1.546875 -6.25 C 1.578125 -6.375 1.71875 -6.4375 1.96875 -6.4375 C 2.175781 -6.4375 2.335938 -6.425781 2.453125 -6.40625 Z M 2.4375 -2.390625 L 2.25 -3.25 C 2.164062 -3.6875 2.085938 -4.265625 2.015625 -4.984375 C 1.929688 -4.203125 1.847656 -3.625 1.765625 -3.25 L 1.59375 -2.390625 Z M 2.4375 -2.390625 "/></g></g></g><g fill="#737373" fill-opacity="1"><g transform="translate(119.063659, 271.497637)"><g><path d="M 2.65625 -6.234375 C 2.65625 -6.304688 2.671875 -6.351562 2.703125 -6.375 C 2.734375 -6.394531 2.832031 -6.40625 3 -6.40625 C 3.164062 -6.414062 3.390625 -6.421875 3.671875 -6.421875 L 3.671875 -0.1875 C 3.671875 -0.125 3.65625 -0.078125 3.625 -0.046875 C 3.59375 -0.015625 3.546875 0 3.484375 0 L 2.703125 0 L 1.71875 -2.453125 C 1.5625 -2.867188 1.378906 -3.550781 1.171875 -4.5 C 1.253906 -3.707031 1.296875 -3.003906 1.296875 -2.390625 L 1.296875 -0.1875 C 1.296875 -0.113281 1.28125 -0.0664062 1.25 -0.046875 C 1.21875 -0.0234375 1.117188 -0.0078125 0.953125 0 C 0.785156 0 0.5625 0 0.28125 0 L 0.28125 -6.234375 C 0.28125 -6.359375 0.335938 -6.421875 0.453125 -6.421875 L 1.265625 -6.421875 L 2.234375 -4.015625 C 2.378906 -3.628906 2.554688 -2.976562 2.765625 -2.0625 C 2.691406 -2.800781 2.65625 -3.476562 2.65625 -4.09375 Z M 2.65625 -6.234375 "/></g></g></g><g fill="#737373" fill-opacity="1"><g transform="translate(126.132039, 271.497637)"><g><path d="M 3.984375 -0.171875 C 3.992188 -0.109375 3.96875 -0.0625 3.90625 -0.03125 C 3.84375 0 3.710938 0.015625 3.515625 0.015625 C 3.304688 0.015625 3.113281 0.0078125 2.9375 0 L 2.625 -1.46875 L 1.390625 -1.46875 L 1.125 -0.171875 C 1.101562 -0.0976562 1.066406 -0.046875 1.015625 -0.015625 C 0.960938 0.00390625 0.84375 0.015625 0.65625 0.015625 C 0.445312 0.015625 0.234375 0.00390625 0.015625 -0.015625 L 1.546875 -6.25 C 1.578125 -6.375 1.71875 -6.4375 1.96875 -6.4375 C 2.175781 -6.4375 2.335938 -6.425781 2.453125 -6.40625 Z M 2.4375 -2.390625 L 2.25 -3.25 C 2.164062 -3.6875 2.085938 -4.265625 2.015625 -4.984375 C 1.929688 -4.203125 1.847656 -3.625 1.765625 -3.25 L 1.59375 -2.390625 Z M 2.4375 -2.390625 "/></g></g></g><g fill="#737373" fill-opacity="1"><g transform="translate(133.264575, 271.497637)"><g><path d="M 1.921875 0.09375 C 1.453125 0.09375 1.09375 0.00390625 0.84375 -0.171875 C 0.601562 -0.347656 0.429688 -0.65625 0.328125 -1.09375 C 0.234375 -1.53125 0.1875 -2.164062 0.1875 -3 C 0.1875 -3.957031 0.257812 -4.691406 0.40625 -5.203125 C 0.5625 -5.710938 0.78125 -6.054688 1.0625 -6.234375 C 1.351562 -6.421875 1.734375 -6.515625 2.203125 -6.515625 C 2.515625 -6.515625 2.757812 -6.460938 2.9375 -6.359375 C 3.113281 -6.253906 3.203125 -6.128906 3.203125 -5.984375 C 3.203125 -5.796875 3.160156 -5.578125 3.078125 -5.328125 C 3.003906 -5.378906 2.90625 -5.421875 2.78125 -5.453125 C 2.664062 -5.492188 2.546875 -5.515625 2.421875 -5.515625 C 2.117188 -5.515625 1.882812 -5.429688 1.71875 -5.265625 C 1.550781 -5.109375 1.4375 -4.859375 1.375 -4.515625 C 1.3125 -4.179688 1.28125 -3.703125 1.28125 -3.078125 C 1.28125 -2.453125 1.300781 -1.984375 1.34375 -1.671875 C 1.382812 -1.367188 1.445312 -1.164062 1.53125 -1.0625 C 1.625 -0.957031 1.757812 -0.90625 1.9375 -0.90625 C 2.09375 -0.90625 2.195312 -0.9375 2.25 -1 L 2.25 -3.046875 L 1.8125 -3.046875 L 1.8125 -3.71875 C 1.8125 -3.832031 1.882812 -3.890625 2.03125 -3.890625 L 3.203125 -3.890625 L 3.1875 -0.1875 C 2.90625 0 2.484375 0.09375 1.921875 0.09375 Z M 1.921875 0.09375 "/></g></g></g><g fill="#737373" fill-opacity="1"><g transform="translate(139.783112, 271.497637)"><g><path d="M 1.296875 -0.90625 L 2.59375 -0.90625 C 2.59375 -0.664062 2.585938 -0.46875 2.578125 -0.3125 C 2.578125 -0.164062 2.566406 -0.078125 2.546875 -0.046875 C 2.523438 -0.015625 2.484375 0 2.421875 0 L 0.28125 0 L 0.28125 -6.234375 C 0.28125 -6.265625 0.289062 -6.300781 0.3125 -6.34375 C 0.332031 -6.394531 0.378906 -6.421875 0.453125 -6.421875 L 2.65625 -6.421875 C 2.65625 -6.191406 2.648438 -6 2.640625 -5.84375 C 2.640625 -5.695312 2.625 -5.601562 2.59375 -5.5625 C 2.570312 -5.53125 2.53125 -5.515625 2.46875 -5.515625 L 1.296875 -5.515625 L 1.296875 -3.9375 L 2.40625 -3.9375 C 2.40625 -3.71875 2.398438 -3.53125 2.390625 -3.375 C 2.390625 -3.226562 2.378906 -3.128906 2.359375 -3.078125 C 2.335938 -3.035156 2.300781 -3.015625 2.25 -3.015625 L 1.296875 -3.015625 Z M 1.296875 -0.90625 "/></g></g></g><g fill="#737373" fill-opacity="1"><g transform="translate(145.669328, 271.497637)"><g><path d="M 4.09375 -6.421875 L 4.09375 -0.1875 C 4.09375 -0.113281 4.078125 -0.0664062 4.046875 -0.046875 C 4.023438 -0.0234375 3.925781 -0.0078125 3.75 0 C 3.582031 0 3.347656 0 3.046875 0 L 3.09375 -1.765625 C 3.113281 -2.191406 3.140625 -2.609375 3.171875 -3.015625 C 3.210938 -3.421875 3.25 -3.753906 3.28125 -4.015625 C 3.320312 -4.273438 3.347656 -4.4375 3.359375 -4.5 L 3.34375 -4.515625 C 3.113281 -3.617188 2.957031 -3.050781 2.875 -2.8125 L 2.4375 -1.59375 C 2.414062 -1.550781 2.378906 -1.53125 2.328125 -1.53125 L 1.90625 -1.53125 L 1.484375 -2.8125 C 1.390625 -3.070312 1.238281 -3.640625 1.03125 -4.515625 L 1 -4.5 C 1.007812 -4.4375 1.035156 -4.273438 1.078125 -4.015625 C 1.117188 -3.765625 1.15625 -3.4375 1.1875 -3.03125 C 1.226562 -2.632812 1.25 -2.210938 1.25 -1.765625 L 1.28125 -0.1875 C 1.28125 -0.113281 1.257812 -0.0664062 1.21875 -0.046875 C 1.1875 -0.0234375 1.085938 -0.0078125 0.921875 0 C 0.753906 0 0.539062 0 0.28125 0 L 0.28125 -6.234375 C 0.28125 -6.316406 0.289062 -6.367188 0.3125 -6.390625 C 0.34375 -6.410156 0.390625 -6.421875 0.453125 -6.421875 L 1.234375 -6.421875 L 1.96875 -4.140625 C 2.039062 -3.910156 2.097656 -3.707031 2.140625 -3.53125 C 2.179688 -3.363281 2.203125 -3.257812 2.203125 -3.21875 C 2.210938 -3.257812 2.234375 -3.363281 2.265625 -3.53125 C 2.304688 -3.707031 2.363281 -3.90625 2.4375 -4.125 L 3.0625 -6.234375 C 3.082031 -6.304688 3.101562 -6.351562 3.125 -6.375 C 3.15625 -6.40625 3.195312 -6.421875 3.25 -6.421875 Z M 4.09375 -6.421875 "/></g></g></g><g fill="#737373" fill-opacity="1"><g transform="translate(153.168424, 271.497637)"><g><path d="M 1.296875 -0.90625 L 2.59375 -0.90625 C 2.59375 -0.664062 2.585938 -0.46875 2.578125 -0.3125 C 2.578125 -0.164062 2.566406 -0.078125 2.546875 -0.046875 C 2.523438 -0.015625 2.484375 0 2.421875 0 L 0.28125 0 L 0.28125 -6.234375 C 0.28125 -6.265625 0.289062 -6.300781 0.3125 -6.34375 C 0.332031 -6.394531 0.378906 -6.421875 0.453125 -6.421875 L 2.65625 -6.421875 C 2.65625 -6.191406 2.648438 -6 2.640625 -5.84375 C 2.640625 -5.695312 2.625 -5.601562 2.59375 -5.5625 C 2.570312 -5.53125 2.53125 -5.515625 2.46875 -5.515625 L 1.296875 -5.515625 L 1.296875 -3.9375 L 2.40625 -3.9375 C 2.40625 -3.71875 2.398438 -3.53125 2.390625 -3.375 C 2.390625 -3.226562 2.378906 -3.128906 2.359375 -3.078125 C 2.335938 -3.035156 2.300781 -3.015625 2.25 -3.015625 L 1.296875 -3.015625 Z M 1.296875 -0.90625 "/></g></g></g><g fill="#737373" fill-opacity="1"><g transform="translate(159.054646, 271.497637)"><g><path d="M 2.65625 -6.234375 C 2.65625 -6.304688 2.671875 -6.351562 2.703125 -6.375 C 2.734375 -6.394531 2.832031 -6.40625 3 -6.40625 C 3.164062 -6.414062 3.390625 -6.421875 3.671875 -6.421875 L 3.671875 -0.1875 C 3.671875 -0.125 3.65625 -0.078125 3.625 -0.046875 C 3.59375 -0.015625 3.546875 0 3.484375 0 L 2.703125 0 L 1.71875 -2.453125 C 1.5625 -2.867188 1.378906 -3.550781 1.171875 -4.5 C 1.253906 -3.707031 1.296875 -3.003906 1.296875 -2.390625 L 1.296875 -0.1875 C 1.296875 -0.113281 1.28125 -0.0664062 1.25 -0.046875 C 1.21875 -0.0234375 1.117188 -0.0078125 0.953125 0 C 0.785156 0 0.5625 0 0.28125 0 L 0.28125 -6.234375 C 0.28125 -6.359375 0.335938 -6.421875 0.453125 -6.421875 L 1.265625 -6.421875 L 2.234375 -4.015625 C 2.378906 -3.628906 2.554688 -2.976562 2.765625 -2.0625 C 2.691406 -2.800781 2.65625 -3.476562 2.65625 -4.09375 Z M 2.65625 -6.234375 "/></g></g></g><g fill="#737373" fill-opacity="1"><g transform="translate(166.12302, 271.497637)"><g><path d="M 3.390625 -6.421875 L 3.390625 -5.65625 C 3.390625 -5.582031 3.375 -5.53125 3.34375 -5.5 C 3.320312 -5.476562 3.273438 -5.46875 3.203125 -5.46875 L 2.234375 -5.46875 L 2.234375 -0.1875 C 2.234375 -0.113281 2.210938 -0.0664062 2.171875 -0.046875 C 2.140625 -0.0234375 2.039062 -0.0078125 1.875 0 C 1.707031 0 1.484375 0 1.203125 0 L 1.203125 -5.46875 L 0.09375 -5.46875 L 0.09375 -6.234375 C 0.09375 -6.359375 0.15625 -6.421875 0.28125 -6.421875 Z M 3.390625 -6.421875 "/></g></g></g><g fill="#737373" fill-opacity="1"><g transform="translate(172.733196, 271.497637)"><g/></g></g><g fill="#737373" fill-opacity="1"><g transform="translate(177.153179, 271.497637)"><g><path d="M 2.46875 -2.8125 C 2.664062 -2.539062 2.84375 -2.191406 3 -1.765625 C 3.15625 -1.335938 3.238281 -0.816406 3.25 -0.203125 C 3.25 -0.128906 3.238281 -0.078125 3.21875 -0.046875 C 3.195312 -0.0234375 3.148438 -0.0078125 3.078125 0 C 3.003906 0.0195312 2.882812 0.03125 2.71875 0.03125 C 2.550781 0.03125 2.351562 0.0195312 2.125 0 C 2.113281 -0.632812 2.050781 -1.148438 1.9375 -1.546875 C 1.820312 -1.953125 1.6875 -2.265625 1.53125 -2.484375 C 1.5 -2.472656 1.441406 -2.46875 1.359375 -2.46875 L 1.296875 -2.46875 L 1.296875 -0.1875 C 1.296875 -0.113281 1.273438 -0.0664062 1.234375 -0.046875 C 1.203125 -0.0234375 1.101562 -0.0078125 0.9375 0 C 0.78125 0 0.5625 0 0.28125 0 L 0.28125 -6.234375 C 0.28125 -6.265625 0.289062 -6.300781 0.3125 -6.34375 C 0.332031 -6.394531 0.378906 -6.421875 0.453125 -6.421875 L 1.328125 -6.421875 C 1.734375 -6.421875 2.0625 -6.363281 2.3125 -6.25 C 2.570312 -6.144531 2.769531 -5.953125 2.90625 -5.671875 C 3.039062 -5.398438 3.109375 -5.019531 3.109375 -4.53125 C 3.109375 -3.71875 2.894531 -3.144531 2.46875 -2.8125 Z M 1.296875 -3.421875 L 1.484375 -3.421875 C 1.640625 -3.421875 1.757812 -3.503906 1.84375 -3.671875 C 1.925781 -3.835938 1.96875 -4.144531 1.96875 -4.59375 C 1.96875 -4.914062 1.929688 -5.15625 1.859375 -5.3125 C 1.796875 -5.46875 1.691406 -5.546875 1.546875 -5.546875 L 1.296875 -5.546875 Z M 1.296875 -3.421875 "/></g></g></g><g fill="#737373" fill-opacity="1"><g transform="translate(183.625888, 271.497637)"><g><path d="M 1.296875 -0.90625 L 2.59375 -0.90625 C 2.59375 -0.664062 2.585938 -0.46875 2.578125 -0.3125 C 2.578125 -0.164062 2.566406 -0.078125 2.546875 -0.046875 C 2.523438 -0.015625 2.484375 0 2.421875 0 L 0.28125 0 L 0.28125 -6.234375 C 0.28125 -6.265625 0.289062 -6.300781 0.3125 -6.34375 C 0.332031 -6.394531 0.378906 -6.421875 0.453125 -6.421875 L 2.65625 -6.421875 C 2.65625 -6.191406 2.648438 -6 2.640625 -5.84375 C 2.640625 -5.695312 2.625 -5.601562 2.59375 -5.5625 C 2.570312 -5.53125 2.53125 -5.515625 2.46875 -5.515625 L 1.296875 -5.515625 L 1.296875 -3.9375 L 2.40625 -3.9375 C 2.40625 -3.71875 2.398438 -3.53125 2.390625 -3.375 C 2.390625 -3.226562 2.378906 -3.128906 2.359375 -3.078125 C 2.335938 -3.035156 2.300781 -3.015625 2.25 -3.015625 L 1.296875 -3.015625 Z M 1.296875 -0.90625 "/></g></g></g><g fill="#737373" fill-opacity="1"><g transform="translate(189.51211, 271.497637)"><g><path d="M 1.71875 0.09375 C 1.351562 0.09375 1.0625 0.0078125 0.84375 -0.15625 C 0.625 -0.320312 0.457031 -0.625 0.34375 -1.0625 C 0.238281 -1.507812 0.1875 -2.15625 0.1875 -3 C 0.1875 -5.34375 0.796875 -6.515625 2.015625 -6.515625 C 2.367188 -6.515625 2.601562 -6.46875 2.71875 -6.375 C 2.832031 -6.28125 2.890625 -6.144531 2.890625 -5.96875 C 2.890625 -5.769531 2.84375 -5.566406 2.75 -5.359375 C 2.601562 -5.460938 2.441406 -5.515625 2.265625 -5.515625 C 1.960938 -5.515625 1.71875 -5.335938 1.53125 -4.984375 C 1.34375 -4.628906 1.25 -3.992188 1.25 -3.078125 C 1.25 -2.546875 1.273438 -2.132812 1.328125 -1.84375 C 1.378906 -1.550781 1.457031 -1.34375 1.5625 -1.21875 C 1.664062 -1.101562 1.804688 -1.046875 1.984375 -1.046875 C 2.285156 -1.046875 2.523438 -1.09375 2.703125 -1.1875 C 2.785156 -1 2.828125 -0.800781 2.828125 -0.59375 C 2.828125 -0.375 2.726562 -0.203125 2.53125 -0.078125 C 2.332031 0.0351562 2.0625 0.09375 1.71875 0.09375 Z M 1.71875 0.09375 "/></g></g></g><g fill="#737373" fill-opacity="1"><g transform="translate(195.618265, 271.497637)"><g><path d="M 1.828125 0.09375 C 1.410156 0.09375 1.082031 0.00390625 0.84375 -0.171875 C 0.613281 -0.359375 0.445312 -0.691406 0.34375 -1.171875 C 0.238281 -1.648438 0.1875 -2.34375 0.1875 -3.25 C 0.1875 -4.0625 0.25 -4.707031 0.375 -5.1875 C 0.5 -5.664062 0.6875 -6.003906 0.9375 -6.203125 C 1.195312 -6.410156 1.53125 -6.515625 1.9375 -6.515625 C 2.34375 -6.515625 2.660156 -6.414062 2.890625 -6.21875 C 3.128906 -6.03125 3.300781 -5.703125 3.40625 -5.234375 C 3.507812 -4.773438 3.5625 -4.125 3.5625 -3.28125 C 3.5625 -2.425781 3.5 -1.753906 3.375 -1.265625 C 3.257812 -0.773438 3.078125 -0.425781 2.828125 -0.21875 C 2.578125 -0.0078125 2.242188 0.09375 1.828125 0.09375 Z M 1.890625 -0.96875 C 2.046875 -0.96875 2.160156 -1.039062 2.234375 -1.1875 C 2.316406 -1.34375 2.375 -1.582031 2.40625 -1.90625 C 2.4375 -2.226562 2.453125 -2.675781 2.453125 -3.25 C 2.453125 -3.84375 2.441406 -4.285156 2.421875 -4.578125 C 2.398438 -4.878906 2.347656 -5.097656 2.265625 -5.234375 C 2.191406 -5.378906 2.078125 -5.453125 1.921875 -5.453125 C 1.773438 -5.453125 1.660156 -5.375 1.578125 -5.21875 C 1.492188 -5.0625 1.429688 -4.804688 1.390625 -4.453125 C 1.359375 -4.109375 1.34375 -3.628906 1.34375 -3.015625 C 1.34375 -2.492188 1.359375 -2.085938 1.390625 -1.796875 C 1.421875 -1.515625 1.472656 -1.304688 1.546875 -1.171875 C 1.617188 -1.035156 1.734375 -0.96875 1.890625 -0.96875 Z M 1.890625 -0.96875 "/></g></g></g><g fill="#737373" fill-opacity="1"><g transform="translate(202.503374, 271.497637)"><g><path d="M 2.46875 -2.8125 C 2.664062 -2.539062 2.84375 -2.191406 3 -1.765625 C 3.15625 -1.335938 3.238281 -0.816406 3.25 -0.203125 C 3.25 -0.128906 3.238281 -0.078125 3.21875 -0.046875 C 3.195312 -0.0234375 3.148438 -0.0078125 3.078125 0 C 3.003906 0.0195312 2.882812 0.03125 2.71875 0.03125 C 2.550781 0.03125 2.351562 0.0195312 2.125 0 C 2.113281 -0.632812 2.050781 -1.148438 1.9375 -1.546875 C 1.820312 -1.953125 1.6875 -2.265625 1.53125 -2.484375 C 1.5 -2.472656 1.441406 -2.46875 1.359375 -2.46875 L 1.296875 -2.46875 L 1.296875 -0.1875 C 1.296875 -0.113281 1.273438 -0.0664062 1.234375 -0.046875 C 1.203125 -0.0234375 1.101562 -0.0078125 0.9375 0 C 0.78125 0 0.5625 0 0.28125 0 L 0.28125 -6.234375 C 0.28125 -6.265625 0.289062 -6.300781 0.3125 -6.34375 C 0.332031 -6.394531 0.378906 -6.421875 0.453125 -6.421875 L 1.328125 -6.421875 C 1.734375 -6.421875 2.0625 -6.363281 2.3125 -6.25 C 2.570312 -6.144531 2.769531 -5.953125 2.90625 -5.671875 C 3.039062 -5.398438 3.109375 -5.019531 3.109375 -4.53125 C 3.109375 -3.71875 2.894531 -3.144531 2.46875 -2.8125 Z M 1.296875 -3.421875 L 1.484375 -3.421875 C 1.640625 -3.421875 1.757812 -3.503906 1.84375 -3.671875 C 1.925781 -3.835938 1.96875 -4.144531 1.96875 -4.59375 C 1.96875 -4.914062 1.929688 -5.15625 1.859375 -5.3125 C 1.796875 -5.46875 1.691406 -5.546875 1.546875 -5.546875 L 1.296875 -5.546875 Z M 1.296875 -3.421875 "/></g></g></g><g fill="#737373" fill-opacity="1"><g transform="translate(208.976083, 271.497637)"><g><path d="M 1.34375 0.09375 C 0.957031 0.09375 0.660156 0.0351562 0.453125 -0.078125 C 0.242188 -0.203125 0.140625 -0.347656 0.140625 -0.515625 C 0.140625 -0.628906 0.160156 -0.75 0.203125 -0.875 C 0.242188 -1.007812 0.300781 -1.132812 0.375 -1.25 C 0.46875 -1.164062 0.59375 -1.09375 0.75 -1.03125 C 0.90625 -0.976562 1.066406 -0.953125 1.234375 -0.953125 C 1.472656 -0.953125 1.644531 -1.015625 1.75 -1.140625 C 1.851562 -1.265625 1.90625 -1.441406 1.90625 -1.671875 C 1.90625 -1.828125 1.875 -1.972656 1.8125 -2.109375 C 1.757812 -2.253906 1.65625 -2.4375 1.5 -2.65625 L 0.65625 -3.765625 C 0.457031 -4.023438 0.320312 -4.257812 0.25 -4.46875 C 0.175781 -4.675781 0.140625 -4.890625 0.140625 -5.109375 C 0.140625 -5.535156 0.28125 -5.875 0.5625 -6.125 C 0.84375 -6.382812 1.242188 -6.515625 1.765625 -6.515625 C 2.210938 -6.515625 2.53125 -6.46875 2.71875 -6.375 C 2.914062 -6.289062 3.015625 -6.164062 3.015625 -6 C 3.015625 -5.800781 2.9375 -5.613281 2.78125 -5.4375 C 2.726562 -5.476562 2.617188 -5.515625 2.453125 -5.546875 C 2.296875 -5.585938 2.140625 -5.609375 1.984375 -5.609375 C 1.742188 -5.609375 1.5625 -5.566406 1.4375 -5.484375 C 1.3125 -5.410156 1.25 -5.296875 1.25 -5.140625 C 1.25 -4.992188 1.269531 -4.863281 1.3125 -4.75 C 1.363281 -4.632812 1.457031 -4.488281 1.59375 -4.3125 L 2.46875 -3.1875 C 2.675781 -2.914062 2.816406 -2.664062 2.890625 -2.4375 C 2.972656 -2.21875 3.015625 -1.972656 3.015625 -1.703125 C 3.015625 -1.171875 2.890625 -0.738281 2.640625 -0.40625 C 2.390625 -0.0703125 1.957031 0.09375 1.34375 0.09375 Z M 1.34375 0.09375 "/></g></g></g><g fill="#737373" fill-opacity="1"><g transform="translate(215.256348, 271.497637)"><g><path d="M 0.28125 -6.234375 C 0.28125 -6.296875 0.296875 -6.34375 0.328125 -6.375 C 0.367188 -6.40625 0.4375 -6.421875 0.53125 -6.421875 L 1.40625 -6.421875 C 1.84375 -6.421875 2.1875 -6.335938 2.4375 -6.171875 C 2.695312 -6.015625 2.890625 -5.726562 3.015625 -5.3125 C 3.140625 -4.894531 3.203125 -4.300781 3.203125 -3.53125 C 3.203125 -2.289062 3.066406 -1.390625 2.796875 -0.828125 C 2.523438 -0.273438 2.078125 0 1.453125 0 L 0.28125 0 Z M 1.484375 -0.96875 C 1.597656 -0.96875 1.695312 -1.03125 1.78125 -1.15625 C 1.863281 -1.289062 1.925781 -1.554688 1.96875 -1.953125 C 2.019531 -2.347656 2.046875 -2.910156 2.046875 -3.640625 C 2.046875 -4.171875 2.019531 -4.566406 1.96875 -4.828125 C 1.925781 -5.097656 1.863281 -5.273438 1.78125 -5.359375 C 1.707031 -5.453125 1.609375 -5.5 1.484375 -5.5 L 1.296875 -5.5 L 1.296875 -0.96875 Z M 1.484375 -0.96875 "/></g></g></g><g fill="#737373" fill-opacity="1"><g transform="translate(221.692414, 271.497637)"><g><path d="M 1.34375 0.09375 C 0.957031 0.09375 0.660156 0.0351562 0.453125 -0.078125 C 0.242188 -0.203125 0.140625 -0.347656 0.140625 -0.515625 C 0.140625 -0.628906 0.160156 -0.75 0.203125 -0.875 C 0.242188 -1.007812 0.300781 -1.132812 0.375 -1.25 C 0.46875 -1.164062 0.59375 -1.09375 0.75 -1.03125 C 0.90625 -0.976562 1.066406 -0.953125 1.234375 -0.953125 C 1.472656 -0.953125 1.644531 -1.015625 1.75 -1.140625 C 1.851562 -1.265625 1.90625 -1.441406 1.90625 -1.671875 C 1.90625 -1.828125 1.875 -1.972656 1.8125 -2.109375 C 1.757812 -2.253906 1.65625 -2.4375 1.5 -2.65625 L 0.65625 -3.765625 C 0.457031 -4.023438 0.320312 -4.257812 0.25 -4.46875 C 0.175781 -4.675781 0.140625 -4.890625 0.140625 -5.109375 C 0.140625 -5.535156 0.28125 -5.875 0.5625 -6.125 C 0.84375 -6.382812 1.242188 -6.515625 1.765625 -6.515625 C 2.210938 -6.515625 2.53125 -6.46875 2.71875 -6.375 C 2.914062 -6.289062 3.015625 -6.164062 3.015625 -6 C 3.015625 -5.800781 2.9375 -5.613281 2.78125 -5.4375 C 2.726562 -5.476562 2.617188 -5.515625 2.453125 -5.546875 C 2.296875 -5.585938 2.140625 -5.609375 1.984375 -5.609375 C 1.742188 -5.609375 1.5625 -5.566406 1.4375 -5.484375 C 1.3125 -5.410156 1.25 -5.296875 1.25 -5.140625 C 1.25 -4.992188 1.269531 -4.863281 1.3125 -4.75 C 1.363281 -4.632812 1.457031 -4.488281 1.59375 -4.3125 L 2.46875 -3.1875 C 2.675781 -2.914062 2.816406 -2.664062 2.890625 -2.4375 C 2.972656 -2.21875 3.015625 -1.972656 3.015625 -1.703125 C 3.015625 -1.171875 2.890625 -0.738281 2.640625 -0.40625 C 2.390625 -0.0703125 1.957031 0.09375 1.34375 0.09375 Z M 1.34375 0.09375 "/></g></g></g><g fill="#737373" fill-opacity="1"><g transform="translate(227.972679, 271.497637)"><g><path d="M 0.65625 0.875 C 0.550781 0.875 0.46875 0.851562 0.40625 0.8125 C 0.34375 0.78125 0.300781 0.710938 0.28125 0.609375 C 0.375 0.453125 0.429688 0.332031 0.453125 0.25 C 0.472656 0.175781 0.492188 0.0664062 0.515625 -0.078125 C 0.421875 -0.128906 0.351562 -0.195312 0.3125 -0.28125 C 0.28125 -0.375 0.265625 -0.488281 0.265625 -0.625 C 0.265625 -0.789062 0.320312 -0.925781 0.4375 -1.03125 C 0.550781 -1.144531 0.691406 -1.203125 0.859375 -1.203125 C 1.066406 -1.203125 1.222656 -1.144531 1.328125 -1.03125 C 1.441406 -0.925781 1.5 -0.765625 1.5 -0.546875 C 1.5 -0.304688 1.445312 -0.0820312 1.34375 0.125 C 1.238281 0.34375 1.113281 0.519531 0.96875 0.65625 C 0.832031 0.800781 0.726562 0.875 0.65625 0.875 Z M 0.65625 0.875 "/></g></g></g><g fill="#737373" fill-opacity="1"><g transform="translate(232.823371, 271.497637)"><g/></g></g><g fill="#737373" fill-opacity="1"><g transform="translate(237.243354, 271.497637)"><g><path d="M 0.28125 -6.234375 C 0.28125 -6.296875 0.296875 -6.34375 0.328125 -6.375 C 0.367188 -6.40625 0.4375 -6.421875 0.53125 -6.421875 L 1.4375 -6.421875 C 1.894531 -6.421875 2.265625 -6.316406 2.546875 -6.109375 C 2.835938 -5.898438 2.984375 -5.523438 2.984375 -4.984375 C 2.984375 -4.546875 2.894531 -4.195312 2.71875 -3.9375 C 2.550781 -3.6875 2.359375 -3.546875 2.140625 -3.515625 C 2.835938 -3.441406 3.1875 -3 3.1875 -2.1875 C 3.1875 -1.53125 3.046875 -1 2.765625 -0.59375 C 2.484375 -0.195312 2.054688 0 1.484375 0 L 0.28125 0 Z M 1.5 -3.890625 C 1.613281 -3.890625 1.703125 -3.96875 1.765625 -4.125 C 1.828125 -4.28125 1.859375 -4.492188 1.859375 -4.765625 C 1.859375 -5.054688 1.828125 -5.253906 1.765625 -5.359375 C 1.710938 -5.472656 1.632812 -5.53125 1.53125 -5.53125 L 1.3125 -5.53125 L 1.3125 -3.890625 Z M 1.5 -0.875 C 1.644531 -0.875 1.757812 -0.976562 1.84375 -1.1875 C 1.9375 -1.40625 1.984375 -1.707031 1.984375 -2.09375 C 1.984375 -2.363281 1.960938 -2.5625 1.921875 -2.6875 C 1.890625 -2.820312 1.84375 -2.910156 1.78125 -2.953125 C 1.71875 -3.003906 1.628906 -3.03125 1.515625 -3.03125 L 1.3125 -3.03125 L 1.3125 -0.875 Z M 1.5 -0.875 "/></g></g></g><g fill="#737373" fill-opacity="1"><g transform="translate(243.661086, 271.497637)"><g><path d="M 1.296875 -0.90625 L 2.59375 -0.90625 C 2.59375 -0.664062 2.585938 -0.46875 2.578125 -0.3125 C 2.578125 -0.164062 2.566406 -0.078125 2.546875 -0.046875 C 2.523438 -0.015625 2.484375 0 2.421875 0 L 0.28125 0 L 0.28125 -6.234375 C 0.28125 -6.265625 0.289062 -6.300781 0.3125 -6.34375 C 0.332031 -6.394531 0.378906 -6.421875 0.453125 -6.421875 L 2.65625 -6.421875 C 2.65625 -6.191406 2.648438 -6 2.640625 -5.84375 C 2.640625 -5.695312 2.625 -5.601562 2.59375 -5.5625 C 2.570312 -5.53125 2.53125 -5.515625 2.46875 -5.515625 L 1.296875 -5.515625 L 1.296875 -3.9375 L 2.40625 -3.9375 C 2.40625 -3.71875 2.398438 -3.53125 2.390625 -3.375 C 2.390625 -3.226562 2.378906 -3.128906 2.359375 -3.078125 C 2.335938 -3.035156 2.300781 -3.015625 2.25 -3.015625 L 1.296875 -3.015625 Z M 1.296875 -0.90625 "/></g></g></g><g fill="#737373" fill-opacity="1"><g transform="translate(249.547308, 271.497637)"><g><path d="M 3.390625 -6.421875 L 3.390625 -5.65625 C 3.390625 -5.582031 3.375 -5.53125 3.34375 -5.5 C 3.320312 -5.476562 3.273438 -5.46875 3.203125 -5.46875 L 2.234375 -5.46875 L 2.234375 -0.1875 C 2.234375 -0.113281 2.210938 -0.0664062 2.171875 -0.046875 C 2.140625 -0.0234375 2.039062 -0.0078125 1.875 0 C 1.707031 0 1.484375 0 1.203125 0 L 1.203125 -5.46875 L 0.09375 -5.46875 L 0.09375 -6.234375 C 0.09375 -6.359375 0.15625 -6.421875 0.28125 -6.421875 Z M 3.390625 -6.421875 "/></g></g></g><g fill="#737373" fill-opacity="1"><g transform="translate(256.157484, 271.497637)"><g><path d="M 3.390625 -6.421875 L 3.390625 -5.65625 C 3.390625 -5.582031 3.375 -5.53125 3.34375 -5.5 C 3.320312 -5.476562 3.273438 -5.46875 3.203125 -5.46875 L 2.234375 -5.46875 L 2.234375 -0.1875 C 2.234375 -0.113281 2.210938 -0.0664062 2.171875 -0.046875 C 2.140625 -0.0234375 2.039062 -0.0078125 1.875 0 C 1.707031 0 1.484375 0 1.203125 0 L 1.203125 -5.46875 L 0.09375 -5.46875 L 0.09375 -6.234375 C 0.09375 -6.359375 0.15625 -6.421875 0.28125 -6.421875 Z M 3.390625 -6.421875 "/></g></g></g><g fill="#737373" fill-opacity="1"><g transform="translate(262.767659, 271.497637)"><g><path d="M 1.296875 -0.90625 L 2.59375 -0.90625 C 2.59375 -0.664062 2.585938 -0.46875 2.578125 -0.3125 C 2.578125 -0.164062 2.566406 -0.078125 2.546875 -0.046875 C 2.523438 -0.015625 2.484375 0 2.421875 0 L 0.28125 0 L 0.28125 -6.234375 C 0.28125 -6.265625 0.289062 -6.300781 0.3125 -6.34375 C 0.332031 -6.394531 0.378906 -6.421875 0.453125 -6.421875 L 2.65625 -6.421875 C 2.65625 -6.191406 2.648438 -6 2.640625 -5.84375 C 2.640625 -5.695312 2.625 -5.601562 2.59375 -5.5625 C 2.570312 -5.53125 2.53125 -5.515625 2.46875 -5.515625 L 1.296875 -5.515625 L 1.296875 -3.9375 L 2.40625 -3.9375 C 2.40625 -3.71875 2.398438 -3.53125 2.390625 -3.375 C 2.390625 -3.226562 2.378906 -3.128906 2.359375 -3.078125 C 2.335938 -3.035156 2.300781 -3.015625 2.25 -3.015625 L 1.296875 -3.015625 Z M 1.296875 -0.90625 "/></g></g></g><g fill="#737373" fill-opacity="1"><g transform="translate(268.653882, 271.497637)"><g><path d="M 2.46875 -2.8125 C 2.664062 -2.539062 2.84375 -2.191406 3 -1.765625 C 3.15625 -1.335938 3.238281 -0.816406 3.25 -0.203125 C 3.25 -0.128906 3.238281 -0.078125 3.21875 -0.046875 C 3.195312 -0.0234375 3.148438 -0.0078125 3.078125 0 C 3.003906 0.0195312 2.882812 0.03125 2.71875 0.03125 C 2.550781 0.03125 2.351562 0.0195312 2.125 0 C 2.113281 -0.632812 2.050781 -1.148438 1.9375 -1.546875 C 1.820312 -1.953125 1.6875 -2.265625 1.53125 -2.484375 C 1.5 -2.472656 1.441406 -2.46875 1.359375 -2.46875 L 1.296875 -2.46875 L 1.296875 -0.1875 C 1.296875 -0.113281 1.273438 -0.0664062 1.234375 -0.046875 C 1.203125 -0.0234375 1.101562 -0.0078125 0.9375 0 C 0.78125 0 0.5625 0 0.28125 0 L 0.28125 -6.234375 C 0.28125 -6.265625 0.289062 -6.300781 0.3125 -6.34375 C 0.332031 -6.394531 0.378906 -6.421875 0.453125 -6.421875 L 1.328125 -6.421875 C 1.734375 -6.421875 2.0625 -6.363281 2.3125 -6.25 C 2.570312 -6.144531 2.769531 -5.953125 2.90625 -5.671875 C 3.039062 -5.398438 3.109375 -5.019531 3.109375 -4.53125 C 3.109375 -3.71875 2.894531 -3.144531 2.46875 -2.8125 Z M 1.296875 -3.421875 L 1.484375 -3.421875 C 1.640625 -3.421875 1.757812 -3.503906 1.84375 -3.671875 C 1.925781 -3.835938 1.96875 -4.144531 1.96875 -4.59375 C 1.96875 -4.914062 1.929688 -5.15625 1.859375 -5.3125 C 1.796875 -5.46875 1.691406 -5.546875 1.546875 -5.546875 L 1.296875 -5.546875 Z M 1.296875 -3.421875 "/></g></g></g><g fill="#737373" fill-opacity="1"><g transform="translate(275.126591, 271.497637)"><g/></g></g><g fill="#737373" fill-opacity="1"><g transform="translate(279.546574, 271.497637)"><g><path d="M 1.328125 -6.421875 C 1.734375 -6.421875 2.0625 -6.363281 2.3125 -6.25 C 2.570312 -6.144531 2.769531 -5.953125 2.90625 -5.671875 C 3.039062 -5.398438 3.109375 -5.019531 3.109375 -4.53125 C 3.109375 -3.769531 2.941406 -3.234375 2.609375 -2.921875 C 2.285156 -2.617188 1.867188 -2.46875 1.359375 -2.46875 L 1.296875 -2.46875 L 1.296875 -0.1875 C 1.296875 -0.113281 1.28125 -0.0664062 1.25 -0.046875 C 1.21875 -0.0234375 1.117188 -0.0078125 0.953125 0 C 0.785156 0 0.5625 0 0.28125 0 L 0.28125 -6.234375 C 0.28125 -6.304688 0.289062 -6.351562 0.3125 -6.375 C 0.332031 -6.40625 0.378906 -6.421875 0.453125 -6.421875 Z M 1.484375 -3.421875 C 1.640625 -3.421875 1.757812 -3.503906 1.84375 -3.671875 C 1.925781 -3.847656 1.96875 -4.175781 1.96875 -4.65625 C 1.96875 -4.957031 1.929688 -5.179688 1.859375 -5.328125 C 1.796875 -5.472656 1.691406 -5.546875 1.546875 -5.546875 L 1.296875 -5.546875 L 1.296875 -3.421875 Z M 1.484375 -3.421875 "/></g></g></g><g fill="#737373" fill-opacity="1"><g transform="translate(285.872661, 271.497637)"><g><path d="M 3.984375 -0.171875 C 3.992188 -0.109375 3.96875 -0.0625 3.90625 -0.03125 C 3.84375 0 3.710938 0.015625 3.515625 0.015625 C 3.304688 0.015625 3.113281 0.0078125 2.9375 0 L 2.625 -1.46875 L 1.390625 -1.46875 L 1.125 -0.171875 C 1.101562 -0.0976562 1.066406 -0.046875 1.015625 -0.015625 C 0.960938 0.00390625 0.84375 0.015625 0.65625 0.015625 C 0.445312 0.015625 0.234375 0.00390625 0.015625 -0.015625 L 1.546875 -6.25 C 1.578125 -6.375 1.71875 -6.4375 1.96875 -6.4375 C 2.175781 -6.4375 2.335938 -6.425781 2.453125 -6.40625 Z M 2.4375 -2.390625 L 2.25 -3.25 C 2.164062 -3.6875 2.085938 -4.265625 2.015625 -4.984375 C 1.929688 -4.203125 1.847656 -3.625 1.765625 -3.25 L 1.59375 -2.390625 Z M 2.4375 -2.390625 "/></g></g></g><g fill="#737373" fill-opacity="1"><g transform="translate(293.005191, 271.497637)"><g><path d="M 3.390625 -6.421875 L 3.390625 -5.65625 C 3.390625 -5.582031 3.375 -5.53125 3.34375 -5.5 C 3.320312 -5.476562 3.273438 -5.46875 3.203125 -5.46875 L 2.234375 -5.46875 L 2.234375 -0.1875 C 2.234375 -0.113281 2.210938 -0.0664062 2.171875 -0.046875 C 2.140625 -0.0234375 2.039062 -0.0078125 1.875 0 C 1.707031 0 1.484375 0 1.203125 0 L 1.203125 -5.46875 L 0.09375 -5.46875 L 0.09375 -6.234375 C 0.09375 -6.359375 0.15625 -6.421875 0.28125 -6.421875 Z M 3.390625 -6.421875 "/></g></g></g><g fill="#737373" fill-opacity="1"><g transform="translate(299.615367, 271.497637)"><g><path d="M 0.28125 -5.96875 C 0.28125 -6.132812 0.296875 -6.242188 0.328125 -6.296875 C 0.359375 -6.359375 0.4375 -6.394531 0.5625 -6.40625 C 0.6875 -6.414062 0.9375 -6.421875 1.3125 -6.421875 L 1.3125 -0.1875 C 1.3125 -0.113281 1.296875 -0.0664062 1.265625 -0.046875 C 1.234375 -0.0234375 1.128906 -0.0078125 0.953125 0 C 0.785156 0 0.5625 0 0.28125 0 Z M 0.28125 -5.96875 "/></g></g></g><g fill="#737373" fill-opacity="1"><g transform="translate(304.337748, 271.497637)"><g><path d="M 1.296875 -0.90625 L 2.59375 -0.90625 C 2.59375 -0.664062 2.585938 -0.46875 2.578125 -0.3125 C 2.578125 -0.164062 2.566406 -0.078125 2.546875 -0.046875 C 2.523438 -0.015625 2.484375 0 2.421875 0 L 0.28125 0 L 0.28125 -6.234375 C 0.28125 -6.265625 0.289062 -6.300781 0.3125 -6.34375 C 0.332031 -6.394531 0.378906 -6.421875 0.453125 -6.421875 L 2.65625 -6.421875 C 2.65625 -6.191406 2.648438 -6 2.640625 -5.84375 C 2.640625 -5.695312 2.625 -5.601562 2.59375 -5.5625 C 2.570312 -5.53125 2.53125 -5.515625 2.46875 -5.515625 L 1.296875 -5.515625 L 1.296875 -3.9375 L 2.40625 -3.9375 C 2.40625 -3.71875 2.398438 -3.53125 2.390625 -3.375 C 2.390625 -3.226562 2.378906 -3.128906 2.359375 -3.078125 C 2.335938 -3.035156 2.300781 -3.015625 2.25 -3.015625 L 1.296875 -3.015625 Z M 1.296875 -0.90625 "/></g></g></g><g fill="#737373" fill-opacity="1"><g transform="translate(310.22397, 271.497637)"><g><path d="M 2.65625 -6.234375 C 2.65625 -6.304688 2.671875 -6.351562 2.703125 -6.375 C 2.734375 -6.394531 2.832031 -6.40625 3 -6.40625 C 3.164062 -6.414062 3.390625 -6.421875 3.671875 -6.421875 L 3.671875 -0.1875 C 3.671875 -0.125 3.65625 -0.078125 3.625 -0.046875 C 3.59375 -0.015625 3.546875 0 3.484375 0 L 2.703125 0 L 1.71875 -2.453125 C 1.5625 -2.867188 1.378906 -3.550781 1.171875 -4.5 C 1.253906 -3.707031 1.296875 -3.003906 1.296875 -2.390625 L 1.296875 -0.1875 C 1.296875 -0.113281 1.28125 -0.0664062 1.25 -0.046875 C 1.21875 -0.0234375 1.117188 -0.0078125 0.953125 0 C 0.785156 0 0.5625 0 0.28125 0 L 0.28125 -6.234375 C 0.28125 -6.359375 0.335938 -6.421875 0.453125 -6.421875 L 1.265625 -6.421875 L 2.234375 -4.015625 C 2.378906 -3.628906 2.554688 -2.976562 2.765625 -2.0625 C 2.691406 -2.800781 2.65625 -3.476562 2.65625 -4.09375 Z M 2.65625 -6.234375 "/></g></g></g><g fill="#737373" fill-opacity="1"><g transform="translate(317.292345, 271.497637)"><g><path d="M 3.390625 -6.421875 L 3.390625 -5.65625 C 3.390625 -5.582031 3.375 -5.53125 3.34375 -5.5 C 3.320312 -5.476562 3.273438 -5.46875 3.203125 -5.46875 L 2.234375 -5.46875 L 2.234375 -0.1875 C 2.234375 -0.113281 2.210938 -0.0664062 2.171875 -0.046875 C 2.140625 -0.0234375 2.039062 -0.0078125 1.875 0 C 1.707031 0 1.484375 0 1.203125 0 L 1.203125 -5.46875 L 0.09375 -5.46875 L 0.09375 -6.234375 C 0.09375 -6.359375 0.15625 -6.421875 0.28125 -6.421875 Z M 3.390625 -6.421875 "/></g></g></g><g fill="#737373" fill-opacity="1"><g transform="translate(323.90252, 271.497637)"><g/></g></g><g fill="#737373" fill-opacity="1"><g transform="translate(328.322503, 271.497637)"><g><path d="M 1.71875 0.09375 C 1.351562 0.09375 1.0625 0.0078125 0.84375 -0.15625 C 0.625 -0.320312 0.457031 -0.625 0.34375 -1.0625 C 0.238281 -1.507812 0.1875 -2.15625 0.1875 -3 C 0.1875 -5.34375 0.796875 -6.515625 2.015625 -6.515625 C 2.367188 -6.515625 2.601562 -6.46875 2.71875 -6.375 C 2.832031 -6.28125 2.890625 -6.144531 2.890625 -5.96875 C 2.890625 -5.769531 2.84375 -5.566406 2.75 -5.359375 C 2.601562 -5.460938 2.441406 -5.515625 2.265625 -5.515625 C 1.960938 -5.515625 1.71875 -5.335938 1.53125 -4.984375 C 1.34375 -4.628906 1.25 -3.992188 1.25 -3.078125 C 1.25 -2.546875 1.273438 -2.132812 1.328125 -1.84375 C 1.378906 -1.550781 1.457031 -1.34375 1.5625 -1.21875 C 1.664062 -1.101562 1.804688 -1.046875 1.984375 -1.046875 C 2.285156 -1.046875 2.523438 -1.09375 2.703125 -1.1875 C 2.785156 -1 2.828125 -0.800781 2.828125 -0.59375 C 2.828125 -0.375 2.726562 -0.203125 2.53125 -0.078125 C 2.332031 0.0351562 2.0625 0.09375 1.71875 0.09375 Z M 1.71875 0.09375 "/></g></g></g><g fill="#737373" fill-opacity="1"><g transform="translate(334.428658, 271.497637)"><g><path d="M 3.984375 -0.171875 C 3.992188 -0.109375 3.96875 -0.0625 3.90625 -0.03125 C 3.84375 0 3.710938 0.015625 3.515625 0.015625 C 3.304688 0.015625 3.113281 0.0078125 2.9375 0 L 2.625 -1.46875 L 1.390625 -1.46875 L 1.125 -0.171875 C 1.101562 -0.0976562 1.066406 -0.046875 1.015625 -0.015625 C 0.960938 0.00390625 0.84375 0.015625 0.65625 0.015625 C 0.445312 0.015625 0.234375 0.00390625 0.015625 -0.015625 L 1.546875 -6.25 C 1.578125 -6.375 1.71875 -6.4375 1.96875 -6.4375 C 2.175781 -6.4375 2.335938 -6.425781 2.453125 -6.40625 Z M 2.4375 -2.390625 L 2.25 -3.25 C 2.164062 -3.6875 2.085938 -4.265625 2.015625 -4.984375 C 1.929688 -4.203125 1.847656 -3.625 1.765625 -3.25 L 1.59375 -2.390625 Z M 2.4375 -2.390625 "/></g></g></g><g fill="#737373" fill-opacity="1"><g transform="translate(341.561187, 271.497637)"><g><path d="M 2.46875 -2.8125 C 2.664062 -2.539062 2.84375 -2.191406 3 -1.765625 C 3.15625 -1.335938 3.238281 -0.816406 3.25 -0.203125 C 3.25 -0.128906 3.238281 -0.078125 3.21875 -0.046875 C 3.195312 -0.0234375 3.148438 -0.0078125 3.078125 0 C 3.003906 0.0195312 2.882812 0.03125 2.71875 0.03125 C 2.550781 0.03125 2.351562 0.0195312 2.125 0 C 2.113281 -0.632812 2.050781 -1.148438 1.9375 -1.546875 C 1.820312 -1.953125 1.6875 -2.265625 1.53125 -2.484375 C 1.5 -2.472656 1.441406 -2.46875 1.359375 -2.46875 L 1.296875 -2.46875 L 1.296875 -0.1875 C 1.296875 -0.113281 1.273438 -0.0664062 1.234375 -0.046875 C 1.203125 -0.0234375 1.101562 -0.0078125 0.9375 0 C 0.78125 0 0.5625 0 0.28125 0 L 0.28125 -6.234375 C 0.28125 -6.265625 0.289062 -6.300781 0.3125 -6.34375 C 0.332031 -6.394531 0.378906 -6.421875 0.453125 -6.421875 L 1.328125 -6.421875 C 1.734375 -6.421875 2.0625 -6.363281 2.3125 -6.25 C 2.570312 -6.144531 2.769531 -5.953125 2.90625 -5.671875 C 3.039062 -5.398438 3.109375 -5.019531 3.109375 -4.53125 C 3.109375 -3.71875 2.894531 -3.144531 2.46875 -2.8125 Z M 1.296875 -3.421875 L 1.484375 -3.421875 C 1.640625 -3.421875 1.757812 -3.503906 1.84375 -3.671875 C 1.925781 -3.835938 1.96875 -4.144531 1.96875 -4.59375 C 1.96875 -4.914062 1.929688 -5.15625 1.859375 -5.3125 C 1.796875 -5.46875 1.691406 -5.546875 1.546875 -5.546875 L 1.296875 -5.546875 Z M 1.296875 -3.421875 "/></g></g></g><g fill="#737373" fill-opacity="1"><g transform="translate(348.033897, 271.497637)"><g><path d="M 1.296875 -0.90625 L 2.59375 -0.90625 C 2.59375 -0.664062 2.585938 -0.46875 2.578125 -0.3125 C 2.578125 -0.164062 2.566406 -0.078125 2.546875 -0.046875 C 2.523438 -0.015625 2.484375 0 2.421875 0 L 0.28125 0 L 0.28125 -6.234375 C 0.28125 -6.265625 0.289062 -6.300781 0.3125 -6.34375 C 0.332031 -6.394531 0.378906 -6.421875 0.453125 -6.421875 L 2.65625 -6.421875 C 2.65625 -6.191406 2.648438 -6 2.640625 -5.84375 C 2.640625 -5.695312 2.625 -5.601562 2.59375 -5.5625 C 2.570312 -5.53125 2.53125 -5.515625 2.46875 -5.515625 L 1.296875 -5.515625 L 1.296875 -3.9375 L 2.40625 -3.9375 C 2.40625 -3.71875 2.398438 -3.53125 2.390625 -3.375 C 2.390625 -3.226562 2.378906 -3.128906 2.359375 -3.078125 C 2.335938 -3.035156 2.300781 -3.015625 2.25 -3.015625 L 1.296875 -3.015625 Z M 1.296875 -0.90625 "/></g></g></g></svg>