<svg xmlns="http://www.w3.org/2000/svg" xmlns:xlink="http://www.w3.org/1999/xlink" width="500" zoomAndPan="magnify" viewBox="0 0 375 374.999991" height="500" preserveAspectRatio="xMidYMid meet" version="1.0"><defs><g/><clipPath id="f677df92b2"><path d="M 148.324219 148 L 203 148 L 203 200 L 148.324219 200 Z M 148.324219 148 " clip-rule="nonzero"/></clipPath><clipPath id="af6e52dcc4"><path d="M 172 125 L 226.324219 125 L 226.324219 178 L 172 178 Z M 172 125 " clip-rule="nonzero"/></clipPath><clipPath id="e818176063"><path d="M 183 123.308594 L 225 123.308594 L 225 153 L 183 153 Z M 183 123.308594 " clip-rule="nonzero"/></clipPath><clipPath id="e277b0113b"><path d="M 150 173 L 192 173 L 192 201.308594 L 150 201.308594 Z M 150 173 " clip-rule="nonzero"/></clipPath></defs><rect x="-37.5" width="450" fill="#ffffff" y="-37.499999" height="449.999989" fill-opacity="1"/><rect x="-37.5" width="450" fill="#191919" y="-37.499999" height="449.999989" fill-opacity="1"/><g clip-path="url(#f677df92b2)"><path fill="#36cb61" d="M 202.03125 199.699219 L 198.03125 199.699219 L 198.03125 164.042969 C 198.03125 157.425781 192.65625 152.050781 186.039062 152.050781 L 154.359375 152.050781 C 153.261719 152.050781 152.359375 152.949219 152.359375 154.050781 L 152.359375 166.582031 L 148.363281 166.582031 L 148.363281 154.027344 C 148.363281 150.730469 151.0625 148.03125 154.359375 148.03125 L 186.039062 148.03125 C 194.855469 148.03125 202.03125 155.207031 202.03125 164.023438 Z M 202.03125 199.699219 " fill-opacity="1" fill-rule="nonzero"/></g><g clip-path="url(#af6e52dcc4)"><path fill="#36cb61" d="M 220.636719 177.113281 L 188.9375 177.113281 C 180.125 177.113281 172.949219 169.9375 172.949219 161.125 L 172.949219 125.464844 L 176.945312 125.464844 L 176.945312 161.144531 C 176.945312 167.761719 182.320312 173.136719 188.9375 173.136719 L 220.617188 173.136719 C 221.71875 173.136719 222.617188 172.238281 222.617188 171.136719 L 222.617188 158.585938 L 226.613281 158.585938 L 226.613281 171.117188 C 226.632812 174.4375 223.9375 177.113281 220.636719 177.113281 Z M 220.636719 177.113281 " fill-opacity="1" fill-rule="nonzero"/></g><g clip-path="url(#e818176063)"><path fill="#1dacff" d="M 224.636719 152.050781 L 208.046875 152.050781 C 202.53125 152.050781 198.050781 147.574219 198.050781 142.054688 L 198.050781 129.464844 C 198.050781 128.363281 197.152344 127.464844 196.054688 127.464844 L 183.5 127.464844 L 183.5 123.46875 L 196.035156 123.46875 C 199.332031 123.46875 202.03125 126.167969 202.03125 129.464844 L 202.03125 142.054688 C 202.03125 145.355469 204.726562 148.050781 208.027344 148.050781 L 224.617188 148.050781 L 224.617188 152.050781 Z M 224.636719 152.050781 " fill-opacity="1" fill-rule="nonzero"/></g><g clip-path="url(#e277b0113b)"><path fill="#1dacff" d="M 191.496094 201.699219 L 178.945312 201.699219 C 175.644531 201.699219 172.949219 199 172.949219 195.703125 L 172.949219 183.109375 C 172.949219 179.8125 170.25 177.113281 166.953125 177.113281 L 150.363281 177.113281 L 150.363281 173.117188 L 166.953125 173.117188 C 172.46875 173.117188 176.945312 177.59375 176.945312 183.109375 L 176.945312 195.703125 C 176.945312 196.800781 177.84375 197.703125 178.945312 197.703125 L 191.496094 197.703125 Z M 191.496094 201.699219 " fill-opacity="1" fill-rule="nonzero"/></g><g fill="#ffffff" fill-opacity="1"><g transform="translate(142.392167, 232.528682)"><g><path d="M 5.9375 0 L 2.609375 0 L 2.609375 -19.796875 L 5.9375 -19.796875 Z M 5.9375 0 "/></g></g></g><g fill="#ffffff" fill-opacity="1"><g transform="translate(157.234188, 232.528682)"><g><path d="M 2.609375 -19.796875 L 10.5 -19.796875 C 12.976562 -19.796875 14.898438 -19.207031 16.265625 -18.03125 C 17.640625 -16.851562 18.328125 -15.1875 18.328125 -13.03125 C 18.328125 -10.789062 17.640625 -9.050781 16.265625 -7.8125 C 14.898438 -6.582031 12.976562 -5.96875 10.5 -5.96875 L 5.9375 -5.96875 L 5.9375 0 L 2.609375 0 Z M 5.9375 -16.796875 L 5.9375 -8.96875 L 10.34375 -8.96875 C 13.53125 -8.96875 15.125 -10.296875 15.125 -12.953125 C 15.125 -15.515625 13.53125 -16.796875 10.34375 -16.796875 Z M 5.9375 -16.796875 "/></g></g></g><g fill="#ffffff" fill-opacity="1"><g transform="translate(182.562759, 232.528682)"><g><path d="M 23.53125 0 L 20.453125 0 L 20.421875 -14.796875 L 14.171875 -2.0625 L 11.984375 -2.0625 L 5.734375 -14.796875 L 5.734375 0 L 2.609375 0 L 2.609375 -19.796875 L 6.5625 -19.796875 L 13.09375 -6.640625 L 19.59375 -19.796875 L 23.53125 -19.796875 Z M 23.53125 0 "/></g></g></g><g fill="#ffffff" fill-opacity="1"><g transform="translate(215.014282, 232.528682)"><g><path d="M 9.109375 -19.9375 C 11.671875 -19.9375 13.976562 -19.257812 16.03125 -17.90625 L 14.65625 -14.953125 C 12.632812 -16.179688 10.703125 -16.796875 8.859375 -16.796875 C 7.859375 -16.796875 7.066406 -16.613281 6.484375 -16.25 C 5.910156 -15.894531 5.625 -15.390625 5.625 -14.734375 C 5.625 -14.078125 5.890625 -13.515625 6.421875 -13.046875 C 6.953125 -12.585938 7.613281 -12.25 8.40625 -12.03125 C 9.195312 -11.8125 10.050781 -11.535156 10.96875 -11.203125 C 11.894531 -10.878906 12.753906 -10.53125 13.546875 -10.15625 C 14.335938 -9.789062 14.992188 -9.21875 15.515625 -8.4375 C 16.035156 -7.65625 16.296875 -6.707031 16.296875 -5.59375 C 16.296875 -3.863281 15.597656 -2.476562 14.203125 -1.4375 C 12.816406 -0.40625 11.023438 0.109375 8.828125 0.109375 C 7.316406 0.109375 5.851562 -0.171875 4.4375 -0.734375 C 3.019531 -1.296875 1.785156 -2.0625 0.734375 -3.03125 L 2.171875 -5.90625 C 3.171875 -4.988281 4.269531 -4.28125 5.46875 -3.78125 C 6.664062 -3.28125 7.800781 -3.03125 8.875 -3.03125 C 10.050781 -3.03125 10.960938 -3.238281 11.609375 -3.65625 C 12.253906 -4.082031 12.578125 -4.675781 12.578125 -5.4375 C 12.578125 -6.113281 12.3125 -6.679688 11.78125 -7.140625 C 11.257812 -7.597656 10.601562 -7.9375 9.8125 -8.15625 C 9.019531 -8.375 8.160156 -8.640625 7.234375 -8.953125 C 6.316406 -9.265625 5.460938 -9.59375 4.671875 -9.9375 C 3.878906 -10.289062 3.21875 -10.851562 2.6875 -11.625 C 2.15625 -12.394531 1.890625 -13.328125 1.890625 -14.421875 C 1.890625 -16.097656 2.550781 -17.4375 3.875 -18.4375 C 5.195312 -19.4375 6.941406 -19.9375 9.109375 -19.9375 Z M 9.109375 -19.9375 "/></g></g></g><g fill="#ffffff" fill-opacity="1"><g transform="translate(70.07274, 249.223091)"><g><path d="M 6.0625 -6.078125 L 2.15625 -6.078125 L 2.15625 -4.140625 L 5.65625 -4.140625 L 5.65625 -3.0625 L 2.15625 -3.0625 L 2.15625 -1.078125 L 6.1875 -1.078125 L 6.1875 0 L 0.9375 0 L 0.9375 -7.15625 L 6.0625 -7.15625 Z M 6.0625 -6.078125 "/></g></g></g><g fill="#ffffff" fill-opacity="1"><g transform="translate(79.343368, 249.223091)"><g><path d="M 5.734375 -6.078125 L 2.15625 -6.078125 L 2.15625 -4.015625 L 5.40625 -4.015625 L 5.40625 -2.9375 L 2.15625 -2.9375 L 2.15625 0 L 0.9375 0 L 0.9375 -7.15625 L 5.75 -7.15625 Z M 5.734375 -6.078125 "/></g></g></g><g fill="#ffffff" fill-opacity="1"><g transform="translate(87.785169, 249.223091)"><g><path d="M 5.734375 -6.078125 L 2.15625 -6.078125 L 2.15625 -4.015625 L 5.40625 -4.015625 L 5.40625 -2.9375 L 2.15625 -2.9375 L 2.15625 0 L 0.9375 0 L 0.9375 -7.15625 L 5.75 -7.15625 Z M 5.734375 -6.078125 "/></g></g></g><g fill="#ffffff" fill-opacity="1"><g transform="translate(96.22697, 249.223091)"><g><path d="M 2.15625 0 L 0.9375 0 L 0.9375 -7.15625 L 2.15625 -7.15625 Z M 2.15625 0 "/></g></g></g><g fill="#ffffff" fill-opacity="1"><g transform="translate(101.87529, 249.223091)"><g><path d="M 4.109375 -7.1875 C 4.617188 -7.1875 5.113281 -7.085938 5.59375 -6.890625 C 6.070312 -6.703125 6.488281 -6.4375 6.84375 -6.09375 L 6.125 -5.203125 C 5.863281 -5.484375 5.554688 -5.707031 5.203125 -5.875 C 4.847656 -6.039062 4.492188 -6.125 4.140625 -6.125 C 3.421875 -6.125 2.8125 -5.878906 2.3125 -5.390625 C 1.820312 -4.898438 1.578125 -4.304688 1.578125 -3.609375 C 1.578125 -2.890625 1.820312 -2.285156 2.3125 -1.796875 C 2.8125 -1.316406 3.421875 -1.078125 4.140625 -1.078125 C 4.878906 -1.078125 5.539062 -1.359375 6.125 -1.921875 L 6.84375 -1.125 C 6.476562 -0.757812 6.050781 -0.472656 5.5625 -0.265625 C 5.070312 -0.0546875 4.578125 0.046875 4.078125 0.046875 C 3.023438 0.046875 2.140625 -0.300781 1.421875 -1 C 0.703125 -1.695312 0.34375 -2.5625 0.34375 -3.59375 C 0.34375 -4.601562 0.707031 -5.453125 1.4375 -6.140625 C 2.164062 -6.835938 3.054688 -7.1875 4.109375 -7.1875 Z M 4.109375 -7.1875 "/></g></g></g><g fill="#ffffff" fill-opacity="1"><g transform="translate(111.565451, 249.223091)"><g><path d="M 2.15625 0 L 0.9375 0 L 0.9375 -7.15625 L 2.15625 -7.15625 Z M 2.15625 0 "/></g></g></g><g fill="#ffffff" fill-opacity="1"><g transform="translate(117.213772, 249.223091)"><g><path d="M 6.0625 -6.078125 L 2.15625 -6.078125 L 2.15625 -4.140625 L 5.65625 -4.140625 L 5.65625 -3.0625 L 2.15625 -3.0625 L 2.15625 -1.078125 L 6.1875 -1.078125 L 6.1875 0 L 0.9375 0 L 0.9375 -7.15625 L 6.0625 -7.15625 Z M 6.0625 -6.078125 "/></g></g></g><g fill="#ffffff" fill-opacity="1"><g transform="translate(126.4844, 249.223091)"><g><path d="M 7.15625 0 L 5.96875 0 L 2.15625 -5.140625 L 2.15625 0 L 0.9375 0 L 0.9375 -7.15625 L 2.125 -7.15625 L 5.96875 -2.015625 L 5.96875 -7.15625 L 7.15625 -7.15625 Z M 7.15625 0 "/></g></g></g><g fill="#ffffff" fill-opacity="1"><g transform="translate(137.146654, 249.223091)"><g><path d="M 5.828125 -6.078125 L 3.5625 -6.078125 L 3.5625 0 L 2.359375 0 L 2.359375 -6.078125 L 0.09375 -6.078125 L 0.09375 -7.15625 L 5.828125 -7.15625 Z M 5.828125 -6.078125 "/></g></g></g><g fill="#ffffff" fill-opacity="1"><g transform="translate(145.629375, 249.223091)"><g/></g></g><g fill="#ffffff" fill-opacity="1"><g transform="translate(150.827469, 249.223091)"><g><path d="M 5.484375 0 L 4.171875 -2.171875 C 4.109375 -2.160156 4 -2.15625 3.84375 -2.15625 L 2.15625 -2.15625 L 2.15625 0 L 0.9375 0 L 0.9375 -7.15625 L 3.84375 -7.15625 C 4.757812 -7.15625 5.46875 -6.941406 5.96875 -6.515625 C 6.476562 -6.097656 6.734375 -5.5 6.734375 -4.71875 C 6.734375 -4.144531 6.601562 -3.660156 6.34375 -3.265625 C 6.09375 -2.867188 5.726562 -2.578125 5.25 -2.390625 L 6.859375 0 Z M 2.15625 -3.25 L 3.84375 -3.25 C 5.007812 -3.25 5.59375 -3.726562 5.59375 -4.6875 C 5.59375 -5.613281 5.007812 -6.078125 3.84375 -6.078125 L 2.15625 -6.078125 Z M 2.15625 -3.25 "/></g></g></g><g fill="#ffffff" fill-opacity="1"><g transform="translate(160.783671, 249.223091)"><g><path d="M 6.0625 -6.078125 L 2.15625 -6.078125 L 2.15625 -4.140625 L 5.65625 -4.140625 L 5.65625 -3.0625 L 2.15625 -3.0625 L 2.15625 -1.078125 L 6.1875 -1.078125 L 6.1875 0 L 0.9375 0 L 0.9375 -7.15625 L 6.0625 -7.15625 Z M 6.0625 -6.078125 "/></g></g></g><g fill="#ffffff" fill-opacity="1"><g transform="translate(170.054298, 249.223091)"><g><path d="M 4.109375 -7.1875 C 4.617188 -7.1875 5.113281 -7.085938 5.59375 -6.890625 C 6.070312 -6.703125 6.488281 -6.4375 6.84375 -6.09375 L 6.125 -5.203125 C 5.863281 -5.484375 5.554688 -5.707031 5.203125 -5.875 C 4.847656 -6.039062 4.492188 -6.125 4.140625 -6.125 C 3.421875 -6.125 2.8125 -5.878906 2.3125 -5.390625 C 1.820312 -4.898438 1.578125 -4.304688 1.578125 -3.609375 C 1.578125 -2.890625 1.820312 -2.285156 2.3125 -1.796875 C 2.8125 -1.316406 3.421875 -1.078125 4.140625 -1.078125 C 4.878906 -1.078125 5.539062 -1.359375 6.125 -1.921875 L 6.84375 -1.125 C 6.476562 -0.757812 6.050781 -0.472656 5.5625 -0.265625 C 5.070312 -0.0546875 4.578125 0.046875 4.078125 0.046875 C 3.023438 0.046875 2.140625 -0.300781 1.421875 -1 C 0.703125 -1.695312 0.34375 -2.5625 0.34375 -3.59375 C 0.34375 -4.601562 0.707031 -5.453125 1.4375 -6.140625 C 2.164062 -6.835938 3.054688 -7.1875 4.109375 -7.1875 Z M 4.109375 -7.1875 "/></g></g></g><g fill="#ffffff" fill-opacity="1"><g transform="translate(179.744459, 249.223091)"><g><path d="M 1.4375 -6.140625 C 2.164062 -6.835938 3.066406 -7.1875 4.140625 -7.1875 C 5.210938 -7.1875 6.113281 -6.835938 6.84375 -6.140625 C 7.570312 -5.453125 7.9375 -4.597656 7.9375 -3.578125 C 7.9375 -2.554688 7.570312 -1.695312 6.84375 -1 C 6.113281 -0.300781 5.210938 0.046875 4.140625 0.046875 C 3.066406 0.046875 2.164062 -0.300781 1.4375 -1 C 0.707031 -1.695312 0.34375 -2.554688 0.34375 -3.578125 C 0.34375 -4.597656 0.707031 -5.453125 1.4375 -6.140625 Z M 4.15625 -6.109375 C 3.445312 -6.109375 2.835938 -5.863281 2.328125 -5.375 C 1.828125 -4.882812 1.578125 -4.285156 1.578125 -3.578125 C 1.578125 -2.867188 1.828125 -2.265625 2.328125 -1.765625 C 2.835938 -1.273438 3.441406 -1.03125 4.140625 -1.03125 C 4.847656 -1.03125 5.453125 -1.273438 5.953125 -1.765625 C 6.453125 -2.265625 6.703125 -2.867188 6.703125 -3.578125 C 6.703125 -4.285156 6.453125 -4.882812 5.953125 -5.375 C 5.453125 -5.863281 4.851562 -6.109375 4.15625 -6.109375 Z M 4.15625 -6.109375 "/></g></g></g><g fill="#ffffff" fill-opacity="1"><g transform="translate(190.590887, 249.223091)"><g><path d="M 5.484375 0 L 4.171875 -2.171875 C 4.109375 -2.160156 4 -2.15625 3.84375 -2.15625 L 2.15625 -2.15625 L 2.15625 0 L 0.9375 0 L 0.9375 -7.15625 L 3.84375 -7.15625 C 4.757812 -7.15625 5.46875 -6.941406 5.96875 -6.515625 C 6.476562 -6.097656 6.734375 -5.5 6.734375 -4.71875 C 6.734375 -4.144531 6.601562 -3.660156 6.34375 -3.265625 C 6.09375 -2.867188 5.726562 -2.578125 5.25 -2.390625 L 6.859375 0 Z M 2.15625 -3.25 L 3.84375 -3.25 C 5.007812 -3.25 5.59375 -3.726562 5.59375 -4.6875 C 5.59375 -5.613281 5.007812 -6.078125 3.84375 -6.078125 L 2.15625 -6.078125 Z M 2.15625 -3.25 "/></g></g></g><g fill="#ffffff" fill-opacity="1"><g transform="translate(200.547088, 249.223091)"><g><path d="M 0.9375 -7.15625 L 3.875 -7.15625 C 4.945312 -7.15625 5.832031 -6.816406 6.53125 -6.140625 C 7.226562 -5.472656 7.578125 -4.617188 7.578125 -3.578125 C 7.578125 -2.546875 7.222656 -1.691406 6.515625 -1.015625 C 5.816406 -0.335938 4.925781 0 3.84375 0 L 0.9375 0 Z M 2.15625 -6.078125 L 2.15625 -1.078125 L 3.90625 -1.078125 C 4.613281 -1.078125 5.195312 -1.3125 5.65625 -1.78125 C 6.125 -2.25 6.359375 -2.84375 6.359375 -3.5625 C 6.359375 -4.289062 6.117188 -4.890625 5.640625 -5.359375 C 5.160156 -5.835938 4.566406 -6.078125 3.859375 -6.078125 Z M 2.15625 -6.078125 "/></g></g></g><g fill="#ffffff" fill-opacity="1"><g transform="translate(211.035383, 249.223091)"><g/></g></g><g fill="#ffffff" fill-opacity="1"><g transform="translate(216.233477, 249.223091)"><g><path d="M 8.515625 0 L 7.40625 0 L 7.390625 -5.359375 L 5.125 -0.75 L 4.34375 -0.75 L 2.078125 -5.359375 L 2.078125 0 L 0.9375 0 L 0.9375 -7.15625 L 2.375 -7.15625 L 4.734375 -2.40625 L 7.09375 -7.15625 L 8.515625 -7.15625 Z M 8.515625 0 "/></g></g></g><g fill="#ffffff" fill-opacity="1"><g transform="translate(228.256651, 249.223091)"><g><path d="M 5.5625 -1.609375 L 1.953125 -1.609375 L 1.265625 0 L 0.015625 0 L 3.171875 -7.15625 L 4.40625 -7.15625 L 7.546875 0 L 6.25 0 Z M 5.109375 -2.6875 L 3.75 -5.875 L 2.40625 -2.6875 Z M 5.109375 -2.6875 "/></g></g></g><g fill="#ffffff" fill-opacity="1"><g transform="translate(238.366346, 249.223091)"><g><path d="M 7.15625 0 L 5.96875 0 L 2.15625 -5.140625 L 2.15625 0 L 0.9375 0 L 0.9375 -7.15625 L 2.125 -7.15625 L 5.96875 -2.015625 L 5.96875 -7.15625 L 7.15625 -7.15625 Z M 7.15625 0 "/></g></g></g><g fill="#ffffff" fill-opacity="1"><g transform="translate(249.0286, 249.223091)"><g><path d="M 5.5625 -1.609375 L 1.953125 -1.609375 L 1.265625 0 L 0.015625 0 L 3.171875 -7.15625 L 4.40625 -7.15625 L 7.546875 0 L 6.25 0 Z M 5.109375 -2.6875 L 3.75 -5.875 L 2.40625 -2.6875 Z M 5.109375 -2.6875 "/></g></g></g><g fill="#ffffff" fill-opacity="1"><g transform="translate(259.138294, 249.223091)"><g><path d="M 5.84375 -3.515625 L 6.890625 -3.515625 L 6.890625 -0.875 C 6.523438 -0.59375 6.09375 -0.367188 5.59375 -0.203125 C 5.09375 -0.0351562 4.597656 0.046875 4.109375 0.046875 C 3.054688 0.046875 2.164062 -0.300781 1.4375 -1 C 0.707031 -1.695312 0.34375 -2.554688 0.34375 -3.578125 C 0.34375 -4.597656 0.710938 -5.453125 1.453125 -6.140625 C 2.191406 -6.835938 3.101562 -7.1875 4.1875 -7.1875 C 4.6875 -7.1875 5.179688 -7.097656 5.671875 -6.921875 C 6.160156 -6.742188 6.582031 -6.5 6.9375 -6.1875 L 6.25 -5.296875 C 5.664062 -5.847656 4.976562 -6.125 4.1875 -6.125 C 3.457031 -6.125 2.835938 -5.875 2.328125 -5.375 C 1.828125 -4.882812 1.578125 -4.285156 1.578125 -3.578125 C 1.578125 -2.859375 1.828125 -2.253906 2.328125 -1.765625 C 2.835938 -1.273438 3.460938 -1.03125 4.203125 -1.03125 C 4.753906 -1.03125 5.300781 -1.195312 5.84375 -1.53125 Z M 5.84375 -3.515625 "/></g></g></g><g fill="#ffffff" fill-opacity="1"><g transform="translate(269.360549, 249.223091)"><g><path d="M 6.0625 -6.078125 L 2.15625 -6.078125 L 2.15625 -4.140625 L 5.65625 -4.140625 L 5.65625 -3.0625 L 2.15625 -3.0625 L 2.15625 -1.078125 L 6.1875 -1.078125 L 6.1875 0 L 0.9375 0 L 0.9375 -7.15625 L 6.0625 -7.15625 Z M 6.0625 -6.078125 "/></g></g></g><g fill="#ffffff" fill-opacity="1"><g transform="translate(278.631176, 249.223091)"><g><path d="M 8.515625 0 L 7.40625 0 L 7.390625 -5.359375 L 5.125 -0.75 L 4.34375 -0.75 L 2.078125 -5.359375 L 2.078125 0 L 0.9375 0 L 0.9375 -7.15625 L 2.375 -7.15625 L 4.734375 -2.40625 L 7.09375 -7.15625 L 8.515625 -7.15625 Z M 8.515625 0 "/></g></g></g><g fill="#ffffff" fill-opacity="1"><g transform="translate(290.654351, 249.223091)"><g><path d="M 6.0625 -6.078125 L 2.15625 -6.078125 L 2.15625 -4.140625 L 5.65625 -4.140625 L 5.65625 -3.0625 L 2.15625 -3.0625 L 2.15625 -1.078125 L 6.1875 -1.078125 L 6.1875 0 L 0.9375 0 L 0.9375 -7.15625 L 6.0625 -7.15625 Z M 6.0625 -6.078125 "/></g></g></g><g fill="#ffffff" fill-opacity="1"><g transform="translate(299.924966, 249.223091)"><g><path d="M 7.15625 0 L 5.96875 0 L 2.15625 -5.140625 L 2.15625 0 L 0.9375 0 L 0.9375 -7.15625 L 2.125 -7.15625 L 5.96875 -2.015625 L 5.96875 -7.15625 L 7.15625 -7.15625 Z M 7.15625 0 "/></g></g></g><g fill="#ffffff" fill-opacity="1"><g transform="translate(310.587233, 249.223091)"><g><path d="M 5.828125 -6.078125 L 3.5625 -6.078125 L 3.5625 0 L 2.359375 0 L 2.359375 -6.078125 L 0.09375 -6.078125 L 0.09375 -7.15625 L 5.828125 -7.15625 Z M 5.828125 -6.078125 "/></g></g></g><g fill="#ffffff" fill-opacity="1"><g transform="translate(319.069967, 249.223091)"><g><path d="M 1.109375 -1.234375 C 1.285156 -1.234375 1.429688 -1.171875 1.546875 -1.046875 C 1.671875 -0.929688 1.734375 -0.773438 1.734375 -0.578125 C 1.734375 -0.398438 1.675781 -0.222656 1.5625 -0.046875 L 0.96875 0.84375 L 0.375 0.84375 L 0.75 -0.046875 C 0.570312 -0.171875 0.484375 -0.347656 0.484375 -0.578125 C 0.484375 -0.773438 0.539062 -0.929688 0.65625 -1.046875 C 0.78125 -1.171875 0.929688 -1.234375 1.109375 -1.234375 Z M 1.109375 -1.234375 "/></g></g></g><g fill="#ffffff" fill-opacity="1"><g transform="translate(113.560564, 262.86633)"><g><path d="M 0.9375 -7.15625 L 4.046875 -7.15625 C 4.796875 -7.15625 5.382812 -7 5.8125 -6.6875 C 6.238281 -6.375 6.453125 -5.9375 6.453125 -5.375 C 6.453125 -4.96875 6.335938 -4.625 6.109375 -4.34375 C 5.890625 -4.0625 5.585938 -3.875 5.203125 -3.78125 C 5.679688 -3.695312 6.054688 -3.492188 6.328125 -3.171875 C 6.597656 -2.847656 6.734375 -2.445312 6.734375 -1.96875 C 6.734375 -1.351562 6.5 -0.867188 6.03125 -0.515625 C 5.570312 -0.171875 4.9375 0 4.125 0 L 0.9375 0 Z M 2.15625 -6.09375 L 2.15625 -4.203125 L 3.984375 -4.203125 C 4.367188 -4.203125 4.671875 -4.285156 4.890625 -4.453125 C 5.109375 -4.617188 5.21875 -4.851562 5.21875 -5.15625 C 5.21875 -5.457031 5.109375 -5.6875 4.890625 -5.84375 C 4.679688 -6.007812 4.378906 -6.09375 3.984375 -6.09375 Z M 2.15625 -3.125 L 2.15625 -1.078125 L 3.984375 -1.078125 C 4.460938 -1.078125 4.832031 -1.164062 5.09375 -1.34375 C 5.363281 -1.519531 5.5 -1.78125 5.5 -2.125 C 5.5 -2.4375 5.363281 -2.679688 5.09375 -2.859375 C 4.832031 -3.035156 4.460938 -3.125 3.984375 -3.125 Z M 2.15625 -3.125 "/></g></g></g><g fill="#ffffff" fill-opacity="1"><g transform="translate(123.342818, 262.86633)"><g><path d="M 6.0625 -6.078125 L 2.15625 -6.078125 L 2.15625 -4.140625 L 5.65625 -4.140625 L 5.65625 -3.0625 L 2.15625 -3.0625 L 2.15625 -1.078125 L 6.1875 -1.078125 L 6.1875 0 L 0.9375 0 L 0.9375 -7.15625 L 6.0625 -7.15625 Z M 6.0625 -6.078125 "/></g></g></g><g fill="#ffffff" fill-opacity="1"><g transform="translate(132.613446, 262.86633)"><g><path d="M 5.828125 -6.078125 L 3.5625 -6.078125 L 3.5625 0 L 2.359375 0 L 2.359375 -6.078125 L 0.09375 -6.078125 L 0.09375 -7.15625 L 5.828125 -7.15625 Z M 5.828125 -6.078125 "/></g></g></g><g fill="#ffffff" fill-opacity="1"><g transform="translate(141.096167, 262.86633)"><g><path d="M 5.828125 -6.078125 L 3.5625 -6.078125 L 3.5625 0 L 2.359375 0 L 2.359375 -6.078125 L 0.09375 -6.078125 L 0.09375 -7.15625 L 5.828125 -7.15625 Z M 5.828125 -6.078125 "/></g></g></g><g fill="#ffffff" fill-opacity="1"><g transform="translate(149.578888, 262.86633)"><g><path d="M 6.0625 -6.078125 L 2.15625 -6.078125 L 2.15625 -4.140625 L 5.65625 -4.140625 L 5.65625 -3.0625 L 2.15625 -3.0625 L 2.15625 -1.078125 L 6.1875 -1.078125 L 6.1875 0 L 0.9375 0 L 0.9375 -7.15625 L 6.0625 -7.15625 Z M 6.0625 -6.078125 "/></g></g></g><g fill="#ffffff" fill-opacity="1"><g transform="translate(158.849516, 262.86633)"><g><path d="M 5.484375 0 L 4.171875 -2.171875 C 4.109375 -2.160156 4 -2.15625 3.84375 -2.15625 L 2.15625 -2.15625 L 2.15625 0 L 0.9375 0 L 0.9375 -7.15625 L 3.84375 -7.15625 C 4.757812 -7.15625 5.46875 -6.941406 5.96875 -6.515625 C 6.476562 -6.097656 6.734375 -5.5 6.734375 -4.71875 C 6.734375 -4.144531 6.601562 -3.660156 6.34375 -3.265625 C 6.09375 -2.867188 5.726562 -2.578125 5.25 -2.390625 L 6.859375 0 Z M 2.15625 -3.25 L 3.84375 -3.25 C 5.007812 -3.25 5.59375 -3.726562 5.59375 -4.6875 C 5.59375 -5.613281 5.007812 -6.078125 3.84375 -6.078125 L 2.15625 -6.078125 Z M 2.15625 -3.25 "/></g></g></g><g fill="#ffffff" fill-opacity="1"><g transform="translate(168.805717, 262.86633)"><g/></g></g><g fill="#ffffff" fill-opacity="1"><g transform="translate(174.003811, 262.86633)"><g><path d="M 0.9375 -7.15625 L 3.796875 -7.15625 C 4.691406 -7.15625 5.382812 -6.941406 5.875 -6.515625 C 6.375 -6.097656 6.625 -5.5 6.625 -4.71875 C 6.625 -3.90625 6.375 -3.273438 5.875 -2.828125 C 5.382812 -2.378906 4.691406 -2.15625 3.796875 -2.15625 L 2.15625 -2.15625 L 2.15625 0 L 0.9375 0 Z M 2.15625 -6.078125 L 2.15625 -3.25 L 3.75 -3.25 C 4.894531 -3.25 5.46875 -3.726562 5.46875 -4.6875 C 5.46875 -5.613281 4.894531 -6.078125 3.75 -6.078125 Z M 2.15625 -6.078125 "/></g></g></g><g fill="#ffffff" fill-opacity="1"><g transform="translate(183.448386, 262.86633)"><g><path d="M 5.5625 -1.609375 L 1.953125 -1.609375 L 1.265625 0 L 0.015625 0 L 3.171875 -7.15625 L 4.40625 -7.15625 L 7.546875 0 L 6.25 0 Z M 5.109375 -2.6875 L 3.75 -5.875 L 2.40625 -2.6875 Z M 5.109375 -2.6875 "/></g></g></g><g fill="#ffffff" fill-opacity="1"><g transform="translate(193.55808, 262.86633)"><g><path d="M 5.828125 -6.078125 L 3.5625 -6.078125 L 3.5625 0 L 2.359375 0 L 2.359375 -6.078125 L 0.09375 -6.078125 L 0.09375 -7.15625 L 5.828125 -7.15625 Z M 5.828125 -6.078125 "/></g></g></g><g fill="#ffffff" fill-opacity="1"><g transform="translate(202.040801, 262.86633)"><g><path d="M 2.15625 0 L 0.9375 0 L 0.9375 -7.15625 L 2.15625 -7.15625 Z M 2.15625 0 "/></g></g></g><g fill="#ffffff" fill-opacity="1"><g transform="translate(207.689122, 262.86633)"><g><path d="M 6.0625 -6.078125 L 2.15625 -6.078125 L 2.15625 -4.140625 L 5.65625 -4.140625 L 5.65625 -3.0625 L 2.15625 -3.0625 L 2.15625 -1.078125 L 6.1875 -1.078125 L 6.1875 0 L 0.9375 0 L 0.9375 -7.15625 L 6.0625 -7.15625 Z M 6.0625 -6.078125 "/></g></g></g><g fill="#ffffff" fill-opacity="1"><g transform="translate(216.95975, 262.86633)"><g><path d="M 7.15625 0 L 5.96875 0 L 2.15625 -5.140625 L 2.15625 0 L 0.9375 0 L 0.9375 -7.15625 L 2.125 -7.15625 L 5.96875 -2.015625 L 5.96875 -7.15625 L 7.15625 -7.15625 Z M 7.15625 0 "/></g></g></g><g fill="#ffffff" fill-opacity="1"><g transform="translate(227.622004, 262.86633)"><g><path d="M 5.828125 -6.078125 L 3.5625 -6.078125 L 3.5625 0 L 2.359375 0 L 2.359375 -6.078125 L 0.09375 -6.078125 L 0.09375 -7.15625 L 5.828125 -7.15625 Z M 5.828125 -6.078125 "/></g></g></g><g fill="#ffffff" fill-opacity="1"><g transform="translate(236.104725, 262.86633)"><g/></g></g><g fill="#ffffff" fill-opacity="1"><g transform="translate(241.302819, 262.86633)"><g><path d="M 4.109375 -7.1875 C 4.617188 -7.1875 5.113281 -7.085938 5.59375 -6.890625 C 6.070312 -6.703125 6.488281 -6.4375 6.84375 -6.09375 L 6.125 -5.203125 C 5.863281 -5.484375 5.554688 -5.707031 5.203125 -5.875 C 4.847656 -6.039062 4.492188 -6.125 4.140625 -6.125 C 3.421875 -6.125 2.8125 -5.878906 2.3125 -5.390625 C 1.820312 -4.898438 1.578125 -4.304688 1.578125 -3.609375 C 1.578125 -2.890625 1.820312 -2.285156 2.3125 -1.796875 C 2.8125 -1.316406 3.421875 -1.078125 4.140625 -1.078125 C 4.878906 -1.078125 5.539062 -1.359375 6.125 -1.921875 L 6.84375 -1.125 C 6.476562 -0.757812 6.050781 -0.472656 5.5625 -0.265625 C 5.070312 -0.0546875 4.578125 0.046875 4.078125 0.046875 C 3.023438 0.046875 2.140625 -0.300781 1.421875 -1 C 0.703125 -1.695312 0.34375 -2.5625 0.34375 -3.59375 C 0.34375 -4.601562 0.707031 -5.453125 1.4375 -6.140625 C 2.164062 -6.835938 3.054688 -7.1875 4.109375 -7.1875 Z M 4.109375 -7.1875 "/></g></g></g><g fill="#ffffff" fill-opacity="1"><g transform="translate(250.99298, 262.86633)"><g><path d="M 5.5625 -1.609375 L 1.953125 -1.609375 L 1.265625 0 L 0.015625 0 L 3.171875 -7.15625 L 4.40625 -7.15625 L 7.546875 0 L 6.25 0 Z M 5.109375 -2.6875 L 3.75 -5.875 L 2.40625 -2.6875 Z M 5.109375 -2.6875 "/></g></g></g><g fill="#ffffff" fill-opacity="1"><g transform="translate(261.102674, 262.86633)"><g><path d="M 5.484375 0 L 4.171875 -2.171875 C 4.109375 -2.160156 4 -2.15625 3.84375 -2.15625 L 2.15625 -2.15625 L 2.15625 0 L 0.9375 0 L 0.9375 -7.15625 L 3.84375 -7.15625 C 4.757812 -7.15625 5.46875 -6.941406 5.96875 -6.515625 C 6.476562 -6.097656 6.734375 -5.5 6.734375 -4.71875 C 6.734375 -4.144531 6.601562 -3.660156 6.34375 -3.265625 C 6.09375 -2.867188 5.726562 -2.578125 5.25 -2.390625 L 6.859375 0 Z M 2.15625 -3.25 L 3.84375 -3.25 C 5.007812 -3.25 5.59375 -3.726562 5.59375 -4.6875 C 5.59375 -5.613281 5.007812 -6.078125 3.84375 -6.078125 L 2.15625 -6.078125 Z M 2.15625 -3.25 "/></g></g></g><g fill="#ffffff" fill-opacity="1"><g transform="translate(271.058876, 262.86633)"><g><path d="M 6.0625 -6.078125 L 2.15625 -6.078125 L 2.15625 -4.140625 L 5.65625 -4.140625 L 5.65625 -3.0625 L 2.15625 -3.0625 L 2.15625 -1.078125 L 6.1875 -1.078125 L 6.1875 0 L 0.9375 0 L 0.9375 -7.15625 L 6.0625 -7.15625 Z M 6.0625 -6.078125 "/></g></g></g></svg>